<svg xmlns="http://www.w3.org/2000/svg" xmlns:xlink="http://www.w3.org/1999/xlink" xmlns:lucid="lucid" width="2017.03" height="1364"><g transform="translate(0 0)" lucid:page-tab-id="eNbqbEM6f5NI"><path d="M660 764.8a30 30 0 0 1 30-30h500a30 30 0 0 1 30 30V1070a30 30 0 0 1-30 30H690a30 30 0 0 1-30-30z" stroke="#333" fill-opacity="0"/><path d="M721.97 723.04v-5.9c0-7.25-5.88-13.13-13.12-13.13-7.24 0-13.12 5.9-13.12 13.14v5.9h6.64v-5.9c0-3.58 2.9-6.5 6.48-6.5 3.57 0 6.48 2.92 6.48 6.5v5.9h6.64z" fill="#876a22"/><path d="M721.98 723.06h5.42v20.83H690v-20.84h5.72v-7.1c0-7.28 5.87-13.16 13.13-13.16 7.25 0 13.13 5.88 13.13 13.15v7.1zm-6.66 0v-7.1c0-3.6-2.88-6.5-6.47-6.5-3.6 0-6.47 2.9-6.47 6.5v7.1h12.94z" fill="#daa835"/><path d="M690 743.9h37.4v.9H690z" fill="#876a22"/><path d="M660 742.6a5 5 0 0 1 5-5h230a5 5 0 0 1 5 5V795a5 5 0 0 1-5 5H665a5 5 0 0 1-5-5z" fill="none"/><use xlink:href="#a" transform="matrix(1,0,0,1,660,737.5926600208343) translate(11.827160493827165 37.72222222222222)"/><use xlink:href="#b" transform="matrix(1,0,0,1,660,737.5926600208343) translate(124.08641975308642 37.72222222222222)"/><path d="M665.04 232a5 5 0 0 1 5-5H875a5 5 0 0 1 5 5v43.74a5 5 0 0 1-5 5H670.04a5 5 0 0 1-5-5z" fill="none"/><use xlink:href="#c" transform="matrix(1,0,0,1,665.0370586628745,226.9938478850219) translate(4.055555555555557 33.22222222222222)"/><use xlink:href="#b" transform="matrix(1,0,0,1,665.0370586628745,226.9938478850219) translate(105.85802469135803 33.22222222222222)"/><path d="M280 62a30 30 0 0 1 30-30h1280a30 30 0 0 1 30 30v1268a30 30 0 0 1-30 30H310a30 30 0 0 1-30-30z" stroke="#333" fill-opacity="0"/><path d="M388 34.4v3.54c0 6.42-7.1 13.05-15.76 13.05h-46.48C317.1 51 310 44.35 310 37.93V34.4z" fill="#9d5125"/><path d="M340.03 0c8.03 0 14.82 4.4 18.17 11.67 4.6-3.14 10.92-1.98 14.04 2.65 1.17 1.64 1.7 3.32 1.8 5.3 7.87.68 13.95 8.25 13.95 14.27v1.3c0 6.45-7.1 13-15.76 13h-46.5c-8.64 0-15.74-6.55-15.74-13v-1.3c0-5.02 4.2-11.87 10.06-13.55v-.58C320.14 8.82 329.03-.05 340.03 0z" fill="#f58535"/><path d="M329.54 23.13l-5.2 18.2h3.04l1.17-4.43h5.38l1.1 4.43h3.05l-4.78-18.2zm-.47 11.4l2.22-8.98 2.1 8.97zM351.2 37.34h-.03l-2.47-14.2h-3.1l-2.4 14.13h-.06l-2.4-14.14h-2.95l3.53 18.2h3.38l2.35-13.7h.06l2.36 13.7h3.4l3.64-18.2h-2.9l-2.4 14.2zM365.9 31.4l-1.98-.72c-1.93-.7-2.75-1.53-2.75-3.1-.16-1.26.75-2.43 2.02-2.6.14-.02.28-.02.43-.02 1.26-.17 2.4.7 2.58 1.96.04.25.03.44 0 .68v.38h2.93v-.4c0-1.9-.5-4.8-5.18-4.8-3.44 0-5.7 1.84-5.7 5.16 0 2.6 1.1 3.97 3.82 4.98l2 .7c1.6.23 2.73 1.6 2.64 3.2.04 1.45-1.08 2.64-2.5 2.68h-.28c-2 0-3-1.12-3-3.33v-.47h-2.9v.43c0 2.55 1.02 5.54 5.52 5.54 3.7 0 6.07-1.6 6.07-5.48.04-2.5-1.1-3.9-3.7-4.8z" fill="#fff"/><path d="M520 122a30 30 0 0 1 30-30h800a30 30 0 0 1 30 30v1008a30 30 0 0 1-30 30H550a30 30 0 0 1-30-30z" stroke="#333" fill-opacity="0"/><path d="M628 94.4v3.54c0 6.42-7.1 13.06-15.76 13.06h-46.48c-8.66 0-15.75-6.64-15.75-13.06V94.4z" fill="#9d5125"/><path d="M580.03 60c8.03 0 14.82 4.4 18.17 11.67 4.6-3.14 10.92-1.98 14.04 2.65 1.17 1.64 1.7 3.33 1.8 5.3 7.87.68 13.95 8.25 13.95 14.27v1.3c0 6.45-7.1 13-15.76 13h-46.5c-8.64 0-15.74-6.55-15.74-13v-1.3c0-5.02 4.2-11.87 10.06-13.56v-.57c.08-10.95 8.97-19.82 19.97-19.77z" fill="#f58535"/><path d="M568.9 83.13h3.08l3.1 14.58 3.32-14.53h3.1l-4.6 18.2h-3.7zM583.37 83.13h5.77c3.5 0 5.04 2.2 5.04 5.3 0 3.1-1.9 5.4-5.33 5.4h-2.57v7.53h-2.9zm2.9 8.5h2.08c1.56 0 2.9-.83 2.9-3.14 0-1.98-.78-3.17-3.1-3.17h-1.87zM607.8 94.83v.38c0 3.32-1.3 6.52-5.6 6.52-4.6 0-6.04-2.97-6.04-9.47s1.43-9.46 6.05-9.46c5.2 0 5.54 3.8 5.54 5.7v.36h-2.9v-.3c0-1.68-.5-3.63-2.6-3.56-2.08.08-3.1 1.35-3.1 7.22 0 5.87.92 7.3 3.14 7.3 2.42 0 2.7-2.7 2.7-4.42v-.3z" fill="#fff"/><path d="M1187.5 221c16.57 0 30 13.44 30 30v258c0 16.56-13.43 30-30 30h-500c-16.57 0-30-13.44-30-30V251c0-16.56 13.43-30 30-30z" stroke="#333" stroke-width="2" fill-opacity="0"/><path d="M963.46 105.6c0 23.25-19.82 42.13-44.25 42.13-24.4 0-44.24-18.88-44.24-42.14 0-23.27 19.83-42.14 44.25-42.14 24.44 0 44.26 18.87 44.26 42.13z" fill="#9d5025"/><path d="M874.96 102.13h88.5v3.46h-88.5v-3.47z" fill="#9d5025"/><path d="M963.46 102.14c0 23.25-19.82 42.13-44.25 42.13-24.4 0-44.24-18.88-44.24-42.14C874.96 78.89 894.8 60 919.2 60c24.44 0 44.26 18.88 44.26 42.14z" fill="#f58536"/><path d="M885.85 106.32v-1.1c.33-5.1 3.33-9.36 8.2-11.6.46-9.4 8.86-16.65 18.8-16.16 6.2.28 11.4 3.28 14.52 8.4 5.07-2.04 10.87.2 13 4.97.34.7.53 1.26.67 1.95 6.66 1.26 11.46 7.34 11.46 12.45v1c0 6.25-6.8 11.73-14.53 11.73H900.3c-7.65.04-14.45-5.43-14.45-11.64z" fill="#fff"/><path d="M928.27 90.33l-2.82 1.85L924 89.2c-2.2-4.62-6.68-7.46-12.04-7.5h-.06c-7.32 0-13.32 5.7-13.32 12.72v2.36l-2.07.58c-3.5 1.34-5.82 4.28-6.1 7.9v1c0 3.43 4.38 7.4 9.97 7.4h37.7c5.65 0 9.97-3.97 9.97-7.4v-1c0-3.46-4.03-7.97-8.7-8.32l-2.54-.2-.17-2.38c0-1.03-.35-1.86-.92-2.7-1.67-2.32-5-2.9-7.43-1.3z" fill="#f58536"/><use xlink:href="#d" transform="matrix(1,0,0,1,874.9629413371255,147.73458321953615) translate(-8.172839506172842 24.888888888888893)"/><use xlink:href="#e" transform="matrix(1,0,0,1,874.9629413371255,147.73458321953615) translate(-13.358024691358032 62.222222222222236)"/><path d="M895.46 625.14l-4.96 2.5v70.32l4.96 2.48 20.1-35.84-20.1-39.46z" fill="#9d5025"/><path d="M907.02 697.73l-11.56 2.7v-75.3l11.56 2.65v69.95z" fill="#f58536"/><path d="M900.93 622.38l6.1-3.04L936 665.92l-28.96 40.32-6.1-3.04v-80.82z" fill="#9d5025"/><path d="M921.46 702.16l-14.43 4.08v-86.9l14.43 4.08v78.74z" fill="#f58536"/><path d="M913.82 615.93l7.66-3.85L964.2 671l-42.72 42.5-7.66-3.85v-93.72z" fill="#9d5025"/><path d="M939.98 706.7l-18.5 6.8V612.08l18.5 6.8v87.83z" fill="#f58536"/><path d="M930.1 607.72l9.88-4.92 46.23 63.36L940 722.8l-9.87-4.92V607.72z" fill="#9d5025"/><path d="M989.5 697.96l-49.52 24.84v-120l49.5 24.84v70.32z" fill="#f58536"/><use xlink:href="#f" transform="matrix(1,0,0,1,890.5,722.7999976737167) translate(19.944444444444443 24.888888888888893)"/><use xlink:href="#g" transform="matrix(1,0,0,1,890.5,722.7999976737167) translate(19.29629629629629 62.222222222222236)"/><use xlink:href="#h" transform="matrix(1,0,0,1,890.5,722.7999976737167) translate(-9.265432098765437 99.55555555555557)"/><path d="M989.5 372.36c0 31.8-25.76 57.63-57.5 57.63s-57.5-25.83-57.5-57.64c0-31.8 25.76-57.63 57.5-57.63s57.5 25.82 57.5 57.63z" fill="#9d5025"/><path d="M874.5 367.62h115v4.73h-115v-4.73z" fill="#9d5025"/><path d="M989.5 367.63c0 31.8-25.76 57.63-57.5 57.63s-57.5-25.82-57.5-57.63c0-31.8 25.76-57.63 57.5-57.63s57.5 25.82 57.5 57.63z" fill="#f58536"/><path d="M969.4 395.96l-4.48-11.78-9.97 3.82-14.23-37.42-3.97-10.33-1.88-4.9-2.9-7.65h-18.92v12.55h10.26l3.63 9.34-29.76 53.02h14.37l21.16-37.8 15.03 39.4 3.6-1.37 8.1-3.06 9.97-3.84z" fill="#fff"/><use xlink:href="#i" transform="matrix(1,0,0,1,874.5,429.99999999999994) translate(1.3703703703703667 24.888888888888893)"/><use xlink:href="#j" transform="matrix(1,0,0,1,874.5,429.99999999999994) translate(24.660493827160494 62.222222222222236)"/><path d="M347.98 560.82l-7.98 4V635l7.98 3.98 19.54-39.1-19.54-39.08z" fill="#8c3123"/><path d="M389.48 628.9L347.96 639V560.8l41.52 10.08 19.63 29.08-19.62 28.92z" fill="#e05243"/><path d="M389.5 628.9l41.53 10.1 7.16-38.08-7.17-40.1-41.53 10.08v58z" fill="#8c3123"/><path d="M431 560.82l8 4V635l-8 3.98v-78.18z" fill="#e05243"/><path d="M371.38 612.84l18.12 2.33 14.35-15.14-14.35-15.14-18.12 2.26v25.68z" fill="#8c3123"/><path d="M407.6 574.74l-18.1 3.3-18.12-3.3 18.1-34.74 18.12 34.74z" fill="#5e1f18"/><path d="M407.6 625.25l-18.1-3.35-18.12 3.35 18.1 34.74 18.12-34.75z" fill="#f2b0a9"/><path d="M407.6 574.75l-18.1-4.48V540l18.1 9.07v25.68z" fill="#e05243"/><path d="M371.38 574.75l18.1-4.48V540l-18.1 9.07v25.68z" fill="#8c3123"/><path d="M389.5 660l18.1-9.08v-25.68l-18.1 4.48V660z" fill="#e05243"/><path d="M389.5 660l-18.12-9.08v-25.68l18.1 4.48V660z" fill="#8c3123"/><path d="M407.6 612.84l-18.1 2.33V584.9l18.1 2.26v25.68z" fill="#e05243"/><use xlink:href="#k" transform="matrix(1,0,0,1,340,660) translate(-7.493827160493829 24.888888888888893)"/><use xlink:href="#l" transform="matrix(1,0,0,1,340,660) translate(30.48765432098765 62.222222222222236)"/><path d="M827 940.1l-13.38-14.64-18.86 48.1 18.86 48.13 13.37-14.64V940.1z" fill="#2e73b8"/><path d="M790.22 1033.6l23.4-11.88v-96.24l-23.4-11.88-27.8 60 27.8 60z" fill="#5294cf"/><path d="M756.78 1033.6h33.43v-120H756.8l-20.07 60 20.08 60z" fill="#2e73b8"/><path d="M733.38 1021.72l23.38 11.88v-120l-23.38 11.88-10.36 48.12 10.36 48.12z" fill="#205b99"/><path d="M720 1007.05l13.38 14.62v-96.2L720 940.06v66.98z" fill="#19486f"/><use xlink:href="#k" transform="matrix(1,0,0,1,720,1033.602485283622) translate(-3.4938271604938294 24.888888888888893)"/><use xlink:href="#m" transform="matrix(1,0,0,1,720,1033.602485283622) translate(20.74691358024691 62.222222222222236)"/><path d="M1474.93 813l-22.9 30.67-12.03-30.6 21.9-1.35 13.03 1.27zM1504.82 813l23.16 30.85 11.77-30.78-21.66-1.35-13.28 1.28z" fill="#fbbf93"/><path d="M1474.93 792.5l-22.9-30.76-12.03 30.8 22.08 1.3 12.85-1.34zM1504.82 792.52l23.18-30.78 12 30.8-21.92 1.33-13.26-1.35z" fill="#6b3a19"/><path d="M1504.82 792.5l23.16-1.72v-29.04l-23.16 5.97v24.8z" fill="#9d5025"/><path d="M1540 792.54l-12-1.76v-29.04l12 5.97v24.84z" fill="#f58536"/><path d="M1504.82 813l23.16 1.8v29.05l-23.16-6.05V813z" fill="#9d5025"/><path d="M1539.76 813.08L1528 814.8v29.05l11.76-5.88v-24.9zM1474.93 792.5l-22.93-1.72v-29.04l22.93 5.97v24.8z" fill="#f58536"/><path d="M1440 792.54l12-1.76v-29.04l-12 5.97v24.84z" fill="#9d5025"/><path d="M1474.93 813l-22.93 1.8v29.05l22.93-6.05V813z" fill="#f58536"/><path d="M1440 813.05l12 1.75v29.05l-12-5.97v-24.83z" fill="#9d5025"/><path d="M1513.86 816.84l-23.9-2.36-24.07 2.3 24.07 46 23.9-45.94z" fill="#fbbf93"/><path d="M1513.86 788.75l-23.9 2.36-24.07-2.3 24.07-46 23.9 45.95z" fill="#6b3a19"/><path d="M1513.86 788.76L1490 785.3v-42.5l23.86 11.9v34.06z" fill="#f58536"/><path d="M1465.9 788.78l24.1-3.5V742.8l-24.1 12v33.98z" fill="#9d5025"/><path d="M1513.86 816.83l-23.86 3.44v42.52l23.86-11.92v-34.05z" fill="#f58536"/><path d="M1465.9 816.8l24.1 3.5v42.5l-24.1-12v-34z" fill="#9d5025"/><use xlink:href="#k" transform="matrix(1,0,0,1,1440,862.7999976737167) translate(-6.993827160493829 24.888888888888893)"/><use xlink:href="#n" transform="matrix(1,0,0,1,1440,862.7999976737167) translate(-26.740740740740748 62.222222222222236)"/><path d="M103.47 933.95l25.4 19.7V959c0 13.93-11.38 25.25-25.4 25.25-14 0-25.4-11.32-25.4-25.25v-5.34zM117.94 991.26c16.1 0 29.06 9.68 29.06 25.44v31.86h-16.7v-22.35h-2.88v22.36H80.1v-22.35h-2.87v22.36H60v-31.86c0-15.76 12.96-25.44 29.06-25.44z" fill="#7d7c7c"/><path d="M103.45 928.57c13.9.1 25.1 11.42 25 25.26-.1 13.83-11.5 24.95-25.4 24.85-13.8-.1-24.95-11.22-25-25 0-13.9 11.4-25.1 25.35-25.1h.05zM117.94 985.93c16.1 0 29.06 9.68 29.06 25.44v31.86h-16.7v-22.4h-2.88v22.4H80.1v-22.4h-2.87v22.4H60v-31.86c0-15.76 12.96-25.44 29.06-25.44z" fill="#d2d3d3"/><use xlink:href="#o" transform="matrix(1,0,0,1,60.00000000000006,1048.5692963073031) translate(-27.23456790123457 24.888888888888893)"/><path d="M1901.18 562.22c11.06 0 18.8 6.98 18.8 16.92v21.58h-9.7v-14.64h-2.7v14.64h-14.96c-1-10.94-9.84-18.38-22.24-18.38h-8.62v-5.97c9.5-.85 17.12-4.5 17.94-14.2h.87zM1839.34 562.2h.93c.88 9.68 8.44 13.34 17.93 14.2v5.93h-8.44c-12.4 0-21.3 7.48-22.23 18.4h-14.67v-14.66h-2.67l-.02 14.65H1800V579.1c0-10 7.74-16.94 18.86-16.94z" fill="#7d7c7c"/><path d="M1870.3 591.43c11.06 0 18.8 6.98 18.8 16.93V630h-9.78v-14.7h-2.62v14.65h-33.07V615.3h-2.57v14.65h-10.18v-21.6c0-9.94 7.74-16.92 18.8-16.92zM1829.06 520.06l16.32 11.6v5c.1 9.13-7.18 16.6-16.28 16.7h-.04c-8.94 0-16.32-7.47-16.32-17.42v-4.4zM1890.86 520.06l16.32 11.6v5c.1 9.13-7.18 16.6-16.28 16.7h-.04c-8.94 0-16.32-7.47-16.32-17.42v-4.4zM1860 542.84l14.4 10.2v4.5c.14 8.07-6.28 14.72-14.35 14.87h-.06c-8.17-.2-14.63-6.94-14.42-15.1 0-.12 0-.2.03-.33v-4.02z" fill="#7d7c7c"/><path d="M1890.88 515c9.18-.17 16.76 7.16 16.93 16.35.17 9.18-7.14 16.78-16.32 16.94-9.18.16-16.76-7.16-16.92-16.35v-.34c-.07-9.08 7.2-16.53 16.32-16.6zM1859.96 537.7c8.14-.2 14.9 6.25 15.1 14.4.18 8.15-6.25 14.9-14.4 15.12-8.13.18-14.9-6.26-15.1-14.4v-.36c-.08-8.07 6.35-14.65 14.4-14.77zM1901.18 557.08c11.06 0 18.8 6.98 18.8 16.94v21.64h-9.7V581h-2.7v14.66h-14.96c-1-10.96-9.84-18.36-22.24-18.36h-8.62v-1.9c9.73-.96 17.12-8.52 17.94-18.24h.87zM1839.34 557.1h.93c.82 9.75 8.2 17.3 17.93 18.27v1.85h-8.44c-12.4 0-21.3 7.48-22.23 18.4h-14.67V581h-2.67l-.02 14.65H1800v-21.63c0-10 7.74-16.93 18.86-16.93z" fill="#d2d3d3"/><path d="M1870.3 586.37c11.06 0 18.8 6.98 18.8 16.93v21.63h-9.78v-14.65h-2.62v14.65h-33.07v-14.65h-2.57v14.65h-10.18V603.3c0-9.95 7.74-16.93 18.8-16.93zM1829.07 515c9.18-.17 16.76 7.16 16.93 16.35.16 9.18-7.15 16.78-16.33 16.94-9.18.16-16.76-7.16-16.93-16.35v-.34c-.06-9.08 7.22-16.5 16.33-16.6z" fill="#d2d3d3"/><use xlink:href="#p" transform="matrix(1,0,0,1,1800,630) translate(19.469135802469133 24.888888888888893)"/><path d="M100 557.03c-33.12 0-60 26.88-60 60 0 33.24 26.88 60 60 60 33.24 0 60-26.88 60-60 0-33.24-26.76-60-60-60zm15.84 112.08v-10.07c0-4.08-2.28-7.56-5.4-9.84h.6c5.76-.6 10.68-2.4 10.68-2.4s7.32-2.3 11.4-6.97c4.2-5.16 5.4-12.36 5.4-12.36s1.2-7.92 0-14.28c-1.2-5.9-6-10.33-6-10.33s1.56-4.2 1.32-8.28c0-4.1-1.92-8.17-1.92-8.17s-3.48-.36-7.32 1.2c-4.44 1.92-9.48 5.4-9.48 5.4s-3.48-1.2-7.56-1.56c-3.72-.72-8.16-.72-8.16-.72s-4.44 0-8.28.72c-4.08.6-7.56 1.56-7.56 1.56s-5.04-3.48-9.48-5.4c-3.72-1.56-7.2-1.2-7.2-1.2s-1.92 4.08-1.92 8.16c0 4.2 1.2 8.27 1.2 8.27s-4.32 4.08-5.88 10.32c-1.68 6.35 0 14.27 0 14.27s.84 7.2 5.28 12.36c4.2 4.68 11.4 6.96 11.4 6.96s5.04 1.8 10.68 2.4h.96c-2.16 2.27-4.44 5.75-4.44 9.83v10.08c-22.32-6.6-38.52-27.47-38.52-52.07 0-30 24.36-54.24 54.36-54.24s54.72 24.23 54.72 54.23c0 24.6-16.44 45.48-38.88 52.08z" stroke="#000" stroke-opacity="0" fill="#0078d7"/><use xlink:href="#q" transform="matrix(1,0,0,1,10,686.0306990401302) translate(41.691358024691354 24.888888888888893)"/><path d="M102.28 925.96c0 1.66-1.34 3-3 3s-3-1.34-3-3 1.34-3 3-3 3 1.34 3 3zm0-12.3c0 1.66-1.34 3-3 3s-3-1.34-3-3c0-1.65 1.34-3 3-3s3 1.35 3 3zm0-12.3c0 1.66-1.34 3-3 3s-3-1.34-3-3c0-1.65 1.34-3 3-3s3 1.35 3 3zm0-12.3c0 1.66-1.34 3-3 3s-3-1.34-3-3c0-1.65 1.34-3 3-3s3 1.35 3 3zm0-12.3c0 1.67-1.34 3-3 3s-3-1.33-3-3c0-1.65 1.34-3 3-3s3 1.35 3 3zm0-12.3c0 1.67-1.34 3-3 3s-3-1.33-3-3c0-1.64 1.34-3 3-3s3 1.36 3 3zm0-12.3c0 1.67-1.34 3-3 3s-3-1.33-3-3c0-1.64 1.34-3 3-3s3 1.36 3 3zm0-12.28c0 1.65-1.34 3-3 3s-3-1.35-3-3c0-1.66 1.34-3 3-3s3 1.34 3 3zm0-12.3c0 1.65-1.34 3-3 3s-3-1.35-3-3c0-1.66 1.34-3 3-3s3 1.34 3 3zm0-12.3c0 1.66-1.34 3-3 3s-3-1.34-3-3 1.34-3 3-3 3 1.34 3 3zm0-12.3c0 1.66-1.34 3-3 3s-3-1.34-3-3c0-1.65 1.34-3 3-3s3 1.35 3 3zm0-12.3c0 1.66-1.34 3-3 3s-3-1.34-3-3c0-1.65 1.34-3 3-3s3 1.35 3 3zm0-12.3c0 1.66-1.34 3-3 3s-3-1.34-3-3c0-1.65 1.34-3 3-3s3 1.35 3 3zm0-12.3c0 1.67-1.34 3-3 3s-3-1.33-3-3c0-1.65 1.34-3 3-3s3 1.35 3 3zm0-12.3c0 1.67-1.34 3-3 3s-3-1.33-3-3c0-1.64 1.34-3 3-3s3 1.36 3 3zm0-12.3c0 1.67-1.34 3-3 3s-3-1.33-3-3c0-1.64 1.34-3 3-3s3 1.36 3 3zm0-12.28c0 1.65-1.34 3-3 3s-3-1.35-3-3c0-1.66 1.34-3 3-3s3 1.34 3 3zm0-12.3c0 1.65-1.34 3-3 3s-3-1.35-3-3c0-1.66 1.34-3 3-3s3 1.34 3 3zm0-12.3c0 1.66-1.34 3-3 3s-3-1.34-3-3 1.34-3 3-3 3 1.34 3 3zm0-12.3c0 1.66-1.34 3-3 3s-3-1.34-3-3c0-1.65 1.34-3 3-3s3 1.35 3 3z" fill="#333"/><path d="M102.28 928.68l-3.73.35-2.27.68v-3.82h6zM100 677.03l2.28-.1v3.15h-6v-3.18z" stroke="#333" stroke-width=".05" fill="#333"/><path d="M1220.5 901.47" stroke="#333" fill="none"/><path stroke="#333" stroke-width=".05" fill="#333"/><path stroke="#333" stroke-width=".05" fill="#333"/><path d="M940 1100.5" stroke="#333" fill="none"/><path stroke="#333" stroke-width=".05" fill="#333"/><path stroke="#333" stroke-width=".05" fill="#333"/><path d="M1079.36 933.54l18.07-14.68 2.87 3.53-18.07 14.67-2.87-3.53z" stroke="#fff" stroke-opacity="0" stroke-width="2.33" fill="#693cc5"/><path d="M1080.1 977.13l2.86-3.53 17.36 14.12-2.87 3.53-17.36-14.12z" stroke="#fff" stroke-opacity="0" stroke-width="1.89" fill="#693cc5"/><path d="M1081.1 960.73l1.46-4.32 46.9 15.68-1.44 4.3-46.9-15.65z" stroke="#fff" stroke-opacity="0" stroke-width=".95" fill="#693cc5"/><path d="M1081.3 949.22l47-15.83 1.46 4.33-47 15.82-1.45-4.33z" stroke="#fff" stroke-opacity="0" stroke-width="2.85" fill="#693cc5"/><path d="M1103.4 924.32l3.73-2.6 27.74 40.54-3.75 2.6-27.73-40.54z" stroke="#fff" stroke-opacity="0" stroke-width="2.48" fill="#693cc5"/><path d="M1136.54 929.1c-7.65-6.03-19.68-14.82-19.8-14.9l2.75-3.7c.13 0 12.23 8.92 19.95 15.02z" stroke="#fff" stroke-opacity="0" stroke-width="3" fill="#693cc5"/><path d="M1118.08 925.3h-19.2c-1.25 0-2.27-1.02-2.27-2.27v-19.2c0-1.27 1.03-2.3 2.3-2.3h19.18c1.26 0 2.28 1.03 2.28 2.3v19.2c0 1.25-1.02 2.28-2.28 2.28zm-16.9-4.56h14.62V906.1h-14.63z" stroke="#fff" stroke-opacity="0" stroke-width="3" fill="#693cc5"/><path d="M1103.4 985.76l27.73-40.54 3.74 2.6-27.72 40.52-3.75-2.58z" stroke="#fff" stroke-opacity="0" stroke-width="1.69" fill="#693cc5"/><path d="M1119.5 999.57l-2.66-3.7c.1 0 12.13-8.86 19.8-14.88l2.72 3.63c-7.7 6.02-19.87 14.85-19.87 14.94z" stroke="#fff" stroke-opacity="0" stroke-width="3" fill="#693cc5"/><path d="M1118.08 1008.54h-19.2c-1.25 0-2.27-1.02-2.27-2.28v-19.2c0-1.27 1.03-2.3 2.3-2.3h19.18c1.26 0 2.28 1.03 2.28 2.3v19.2c0 1.26-1.02 2.28-2.28 2.28zm-16.9-4.56h14.62v-14.65h-14.63zM1147.93 985.07h-19.2c-1.25 0-2.27-1.03-2.27-2.3v-19.2c0-1.25 1.02-2.27 2.28-2.27h19.2c1.25 0 2.27 1.02 2.27 2.28v19.2c0 1.26-1 2.3-2.27 2.3zm-16.9-4.57h14.62v-14.64h-14.63zM1147.93 948.78h-19.2c-1.25 0-2.27-1.02-2.27-2.28v-19.2c0-1.27 1.02-2.3 2.28-2.3h19.2c1.25 0 2.27 1.03 2.27 2.3v19.2c0 1.26-1 2.28-2.27 2.28zm-16.9-4.56h14.62v-14.65h-14.63zM1063.7 982.93c-9.84 0-20.5-2.72-20.5-8.74v-36.8c0-6 10.58-8.72 20.5-8.72 9.9 0 20.46 2.7 20.46 8.73v36.8c-.08 6-10.64 8.73-20.47 8.73zm0-49.7c-10.4 0-15.94 3.1-15.94 4.18v36.8c0 1.08 5.44 4.17 15.93 4.17 10.47 0 15.92-3.1 15.92-4.18v-36.8c-.08-1.07-5.6-4.17-15.93-4.17z" stroke="#fff" stroke-opacity="0" stroke-width="3" fill="#693cc5"/><path d="M1063.7 945c-9.84 0-20.5-2.73-20.5-8.72h4.56c0 1.07 5.44 4.17 15.93 4.17 10.47 0 15.92-3.1 15.92-4.17h4.54c-.08 6-10.64 8.72-20.47 8.72z" stroke="#fff" stroke-opacity="0" stroke-width="3" fill="#693cc5"/><use xlink:href="#r" transform="matrix(1,0,0,1,1013.2110737308635,1017.5385972671729) translate(49.01851851851851 24.888888888888893)"/><use xlink:href="#s" transform="matrix(1,0,0,1,1013.2110737308635,1017.5385972671729) translate(34.37037037037037 62.222222222222236)"/><path d="M833 977.76c0 1.66-1.35 3-3 3-1.67 0-3-1.34-3-3 0-1.65 1.33-3 3-3 1.65 0 3 1.35 3 3zm11.66 0c0 1.66-1.35 3-3 3-1.66 0-3-1.34-3-3 0-1.65 1.34-3 3-3 1.65 0 3 1.35 3 3zm11.67 0c0 1.66-1.35 3-3 3-1.66 0-3-1.34-3-3 0-1.65 1.34-3 3-3 1.65 0 3 1.35 3 3zm11.66 0c0 1.66-1.35 3-3 3-1.66 0-3-1.34-3-3 0-1.65 1.34-3 3-3 1.65 0 3 1.35 3 3zm11.66 0c0 1.66-1.34 3-3 3s-3-1.34-3-3c0-1.65 1.34-3 3-3s3 1.35 3 3zm11.67 0c0 1.66-1.35 3-3 3-1.66 0-3-1.34-3-3 0-1.65 1.34-3 3-3 1.65 0 3 1.35 3 3zm11.67 0c0 1.66-1.35 3-3 3-1.66 0-3-1.34-3-3 0-1.65 1.34-3 3-3 1.65 0 3 1.35 3 3zm11.66 0c0 1.66-1.34 3-3 3-1.65 0-3-1.34-3-3 0-1.65 1.35-3 3-3 1.66 0 3 1.35 3 3zm11.67 0c0 1.66-1.34 3-3 3s-3-1.34-3-3c0-1.65 1.34-3 3-3s3 1.35 3 3zm11.67 0c0 1.66-1.34 3-3 3s-3-1.34-3-3c0-1.65 1.34-3 3-3s3 1.35 3 3zm5-16.75c0 1.66-1.34 3-3 3s-3-1.34-3-3c0-1.65 1.34-3 3-3s3 1.35 3 3zm0-11.76c0 1.66-1.34 3-3 3s-3-1.34-3-3c0-1.65 1.34-3 3-3s3 1.35 3 3zm0-11.76c0 1.66-1.34 3-3 3s-3-1.34-3-3c0-1.65 1.34-3 3-3s3 1.35 3 3zm0-11.76c0 1.66-1.34 3-3 3s-3-1.34-3-3c0-1.65 1.34-3 3-3s3 1.35 3 3zm0-11.76c0 1.66-1.34 3-3 3s-3-1.34-3-3 1.34-3 3-3 3 1.34 3 3zm0-11.76c0 1.66-1.34 3-3 3s-3-1.34-3-3 1.34-3 3-3 3 1.34 3 3zm0-11.76c0 1.66-1.34 3-3 3s-3-1.34-3-3 1.34-3 3-3 3 1.34 3 3zm0-11.76c0 1.66-1.34 3-3 3s-3-1.34-3-3 1.34-3 3-3 3 1.34 3 3zm0-11.76c0 1.66-1.34 3-3 3s-3-1.34-3-3 1.34-3 3-3 3 1.34 3 3zm0-11.76c0 1.66-1.34 3-3 3s-3-1.34-3-3 1.34-3 3-3 3 1.34 3 3zm0-11.76c0 1.65-1.34 3-3 3s-3-1.35-3-3c0-1.66 1.34-3 3-3s3 1.34 3 3zm0-11.76c0 1.65-1.34 3-3 3s-3-1.35-3-3c0-1.66 1.34-3 3-3s3 1.34 3 3zm0-11.76c0 1.65-1.34 3-3 3s-3-1.35-3-3c0-1.66 1.34-3 3-3s3 1.34 3 3zm0-11.76c0 1.65-1.34 3-3 3s-3-1.35-3-3c0-1.66 1.34-3 3-3s3 1.34 3 3zm0-11.77c0 1.66-1.34 3-3 3s-3-1.34-3-3c0-1.65 1.34-3 3-3s3 1.35 3 3zm0-11.76c0 1.65-1.34 3-3 3s-3-1.35-3-3c0-1.66 1.34-3 3-3s3 1.34 3 3zm0-11.77c0 1.66-1.34 3-3 3s-3-1.34-3-3c0-1.65 1.34-3 3-3s3 1.35 3 3zm0-11.76c0 1.66-1.34 3-3 3s-3-1.34-3-3 1.34-3 3-3 3 1.34 3 3zm0-11.76c0 1.67-1.34 3-3 3s-3-1.33-3-3c0-1.64 1.34-3 3-3s3 1.36 3 3zm0-11.75c0 1.66-1.34 3-3 3s-3-1.34-3-3 1.34-3 3-3 3 1.34 3 3zm0-11.76c0 1.65-1.34 3-3 3s-3-1.35-3-3c0-1.67 1.34-3 3-3s3 1.33 3 3z" fill="#333"/><path d="M830.07 980.76H827v-6h3.07zM943 725.87h-6v-4.56l2.98 1.5 3.02-1.5z" stroke="#333" stroke-width=".05" fill="#333"/><path d="M1043.2 955.04c0 1.66-1.33 3-3 3-1.65 0-3-1.34-3-3s1.35-3 3-3c1.67 0 3 1.34 3 3zm-12.14 0c0 1.66-1.34 3-3 3s-3-1.34-3-3 1.34-3 3-3 3 1.34 3 3zm-12.15 0c0 1.66-1.33 3-3 3-1.65 0-3-1.34-3-3s1.35-3 3-3c1.67 0 3 1.34 3 3zm-12.14 0c0 1.66-1.35 3-3 3-1.66 0-3-1.34-3-3s1.34-3 3-3c1.65 0 3 1.34 3 3zm-12.15 0c0 1.66-1.34 3-3 3-1.65 0-3-1.34-3-3s1.35-3 3-3c1.66 0 3 1.34 3 3zm-12.15 0c0 1.66-1.34 3-3 3-1.65 0-3-1.34-3-3s1.35-3 3-3c1.66 0 3 1.34 3 3zm-12.15 0c0 1.66-1.34 3-3 3-1.65 0-3-1.34-3-3s1.35-3 3-3c1.66 0 3 1.34 3 3zm-12.15 0c0 1.66-1.34 3-3 3-1.65 0-3-1.34-3-3s1.35-3 3-3c1.66 0 3 1.34 3 3z" fill="#333"/><path d="M1043.2 958.04h-3.07v-6h3.08z" stroke="#333" stroke-width=".05" fill="#333"/><path d="M943.08 955.04H940" stroke="#333" stroke-width="6" fill="none"/><path d="M1800 576.94c0 1.66-1.34 3-3 3s-3-1.34-3-3 1.34-3 3-3 3 1.34 3 3zm-12.43 0c0 1.66-1.34 3-3 3-1.65 0-3-1.34-3-3s1.35-3 3-3c1.66 0 3 1.34 3 3zm-12.42 0c0 1.66-1.34 3-3 3s-3-1.34-3-3 1.34-3 3-3 3 1.34 3 3zm-12.43 0c0 1.66-1.34 3-3 3-1.65 0-3-1.34-3-3s1.35-3 3-3c1.66 0 3 1.34 3 3zm-12.42 0c0 1.66-1.35 3-3 3-1.66 0-3-1.34-3-3s1.34-3 3-3c1.65 0 3 1.34 3 3zm-12.43 0c0 1.66-1.34 3-3 3-1.65 0-3-1.34-3-3s1.35-3 3-3c1.66 0 3 1.34 3 3zm-12.42 0c0 1.66-1.35 3-3 3-1.66 0-3-1.34-3-3s1.34-3 3-3c1.65 0 3 1.34 3 3zm-12.43 0c0 1.66-1.34 3-3 3s-3-1.34-3-3 1.34-3 3-3 3 1.34 3 3zm-12.42 0c0 1.66-1.35 3-3 3-1.66 0-3-1.34-3-3s1.34-3 3-3c1.65 0 3 1.34 3 3zm-12.43 0c0 1.66-1.34 3-3 3s-3-1.34-3-3 1.34-3 3-3 3 1.34 3 3zm-12.43 0c0 1.66-1.34 3-3 3-1.65 0-3-1.34-3-3s1.35-3 3-3c1.66 0 3 1.34 3 3zm-5 16.9c0 1.64-1.34 3-3 3-1.65 0-3-1.36-3-3 0-1.67 1.35-3 3-3 1.66 0 3 1.33 3 3zm0 11.88c0 1.65-1.34 3-3 3-1.65 0-3-1.35-3-3 0-1.66 1.35-3 3-3 1.66 0 3 1.34 3 3zm0 11.88c0 1.66-1.34 3-3 3-1.65 0-3-1.34-3-3 0-1.65 1.35-3 3-3 1.66 0 3 1.35 3 3zm0 11.9c0 1.65-1.34 3-3 3-1.65 0-3-1.35-3-3 0-1.67 1.35-3 3-3 1.66 0 3 1.33 3 3zm0 11.88c0 1.65-1.34 3-3 3-1.65 0-3-1.35-3-3 0-1.66 1.35-3 3-3 1.66 0 3 1.34 3 3zm0 11.88c0 1.66-1.34 3-3 3-1.65 0-3-1.34-3-3 0-1.65 1.35-3 3-3 1.66 0 3 1.35 3 3zm0 11.9c0 1.65-1.34 3-3 3-1.65 0-3-1.35-3-3 0-1.66 1.35-3 3-3 1.66 0 3 1.34 3 3zm0 11.88c0 1.66-1.34 3-3 3-1.65 0-3-1.34-3-3s1.35-3 3-3c1.66 0 3 1.34 3 3zm0 11.9c0 1.64-1.34 3-3 3-1.65 0-3-1.36-3-3 0-1.67 1.35-3 3-3 1.66 0 3 1.33 3 3zm0 11.87c0 1.67-1.34 3-3 3-1.65 0-3-1.33-3-3 0-1.64 1.35-3 3-3 1.66 0 3 1.36 3 3zm0 11.9c0 1.66-1.34 3-3 3-1.65 0-3-1.34-3-3s1.35-3 3-3c1.66 0 3 1.34 3 3zm0 11.9c0 1.65-1.34 3-3 3-1.65 0-3-1.35-3-3 0-1.67 1.35-3 3-3 1.66 0 3 1.33 3 3zm0 11.88c0 1.65-1.34 3-3 3-1.65 0-3-1.35-3-3 0-1.66 1.35-3 3-3 1.66 0 3 1.34 3 3zm0 11.88c0 1.66-1.34 3-3 3-1.65 0-3-1.34-3-3 0-1.65 1.35-3 3-3 1.66 0 3 1.35 3 3zm0 11.9c0 1.65-1.34 3-3 3-1.65 0-3-1.35-3-3 0-1.67 1.35-3 3-3 1.66 0 3 1.33 3 3zm0 11.88c0 1.65-1.34 3-3 3-1.65 0-3-1.35-3-3 0-1.66 1.35-3 3-3 1.66 0 3 1.34 3 3zm0 11.88c0 1.66-1.34 3-3 3-1.65 0-3-1.34-3-3 0-1.65 1.35-3 3-3 1.66 0 3 1.35 3 3zm0 11.9c0 1.65-1.34 3-3 3-1.65 0-3-1.35-3-3 0-1.66 1.35-3 3-3 1.66 0 3 1.34 3 3zm0 11.88c0 1.66-1.34 3-3 3-1.65 0-3-1.34-3-3s1.35-3 3-3c1.66 0 3 1.34 3 3zm-17.42 5c0 1.66-1.35 3-3 3-1.66 0-3-1.34-3-3s1.34-3 3-3c1.65 0 3 1.34 3 3zm-12.43 0c0 1.66-1.35 3-3 3-1.67 0-3-1.34-3-3s1.33-3 3-3c1.65 0 3 1.34 3 3zm-12.43 0c0 1.66-1.35 3-3 3-1.66 0-3-1.34-3-3s1.34-3 3-3c1.65 0 3 1.34 3 3zm-12.43 0c0 1.66-1.34 3-3 3s-3-1.34-3-3 1.34-3 3-3 3 1.34 3 3zm-12.42 0c0 1.66-1.35 3-3 3-1.66 0-3-1.34-3-3s1.34-3 3-3c1.65 0 3 1.34 3 3zm-12.43 0c0 1.66-1.35 3-3 3-1.67 0-3-1.34-3-3s1.33-3 3-3c1.65 0 3 1.34 3 3zm-12.44 0c0 1.66-1.34 3-3 3-1.65 0-3-1.34-3-3s1.35-3 3-3c1.66 0 3 1.34 3 3zm-12.42 0c0 1.66-1.35 3-3 3-1.66 0-3-1.34-3-3s1.34-3 3-3c1.65 0 3 1.34 3 3zm-12.43 0c0 1.66-1.33 3-3 3-1.64 0-3-1.34-3-3s1.36-3 3-3c1.67 0 3 1.34 3 3zm-12.4 0c0 1.66-1.36 3-3 3-1.67 0-3-1.34-3-3s1.33-3 3-3c1.64 0 3 1.34 3 3z" fill="#333"/><path d="M1800 574.02v5.92h-3.08v-6h3.1zM1538.56 813l-6.07-.4v-2.8h6.06z" stroke="#333" stroke-width=".05" fill="#333"/><path d="M1800 576.94c0 1.66-1.34 3-3 3s-3-1.34-3-3 1.34-3 3-3 3 1.34 3 3zm-12.2 0c0 1.66-1.34 3-3 3s-3-1.34-3-3 1.34-3 3-3 3 1.34 3 3zm-12.2 0c0 1.66-1.34 3-3 3s-3-1.34-3-3 1.34-3 3-3 3 1.34 3 3zm-12.2 0c0 1.66-1.34 3-3 3s-3-1.34-3-3 1.34-3 3-3 3 1.34 3 3zm-12.2 0c0 1.66-1.34 3-3 3s-3-1.34-3-3 1.34-3 3-3 3 1.34 3 3zm-12.2 0c0 1.66-1.34 3-3 3s-3-1.34-3-3 1.34-3 3-3 3 1.34 3 3zm-12.2 0c0 1.66-1.34 3-3 3s-3-1.34-3-3 1.34-3 3-3 3 1.34 3 3zm-12.2 0c0 1.66-1.34 3-3 3s-3-1.34-3-3 1.34-3 3-3 3 1.34 3 3zm-12.2 0c0 1.66-1.34 3-3 3s-3-1.34-3-3 1.34-3 3-3 3 1.34 3 3zm-12.2 0c0 1.66-1.34 3-3 3s-3-1.34-3-3 1.34-3 3-3 3 1.34 3 3zm-12.2 0c0 1.66-1.34 3-3 3s-3-1.34-3-3 1.34-3 3-3 3 1.34 3 3zm-5-16.68c0 1.65-1.34 3-3 3s-3-1.35-3-3c0-1.66 1.34-3 3-3s3 1.34 3 3zm0-11.7c0 1.67-1.34 3-3 3s-3-1.33-3-3c0-1.64 1.34-3 3-3s3 1.36 3 3zm0-11.67c0 1.65-1.34 3-3 3s-3-1.35-3-3c0-1.67 1.34-3 3-3s3 1.33 3 3zm0-11.7c0 1.66-1.34 3-3 3s-3-1.34-3-3c0-1.65 1.34-3 3-3s3 1.35 3 3zm0-11.68c0 1.66-1.34 3-3 3s-3-1.34-3-3c0-1.65 1.34-3 3-3s3 1.35 3 3zm0-11.68c0 1.66-1.34 3-3 3s-3-1.34-3-3 1.34-3 3-3 3 1.34 3 3zm0-11.7c0 1.67-1.34 3-3 3s-3-1.33-3-3c0-1.64 1.34-3 3-3s3 1.36 3 3zm0-11.67c0 1.66-1.34 3-3 3s-3-1.34-3-3 1.34-3 3-3 3 1.34 3 3zm0-11.68c0 1.64-1.34 3-3 3s-3-1.36-3-3c0-1.67 1.34-3 3-3s3 1.33 3 3zm0-11.7c0 1.66-1.34 3-3 3s-3-1.34-3-3c0-1.65 1.34-3 3-3s3 1.35 3 3zm0-11.68c0 1.66-1.34 3-3 3s-3-1.34-3-3 1.34-3 3-3 3 1.34 3 3zm0-11.7c0 1.67-1.34 3-3 3s-3-1.33-3-3c0-1.64 1.34-3 3-3s3 1.36 3 3zm0-11.67c0 1.66-1.34 3-3 3s-3-1.34-3-3 1.34-3 3-3 3 1.34 3 3zm0-11.68c0 1.65-1.34 3-3 3s-3-1.35-3-3c0-1.66 1.34-3 3-3s3 1.34 3 3zm0-11.7c0 1.67-1.34 3-3 3s-3-1.33-3-3c0-1.64 1.34-3 3-3s3 1.36 3 3zm0-11.67c0 1.66-1.34 3-3 3s-3-1.34-3-3 1.34-3 3-3 3 1.34 3 3zm-17.02-5c0 1.66-1.34 3-3 3s-3-1.34-3-3 1.34-3 3-3 3 1.34 3 3zm-12.02 0c0 1.66-1.34 3-3 3-1.65 0-3-1.34-3-3s1.35-3 3-3c1.66 0 3 1.34 3 3zm-12.02 0c0 1.66-1.34 3-3 3-1.65 0-3-1.34-3-3s1.35-3 3-3c1.66 0 3 1.34 3 3zm-12.02 0c0 1.66-1.34 3-3 3-1.65 0-3-1.34-3-3s1.35-3 3-3c1.66 0 3 1.34 3 3zm-12 0c0 1.66-1.36 3-3 3-1.67 0-3-1.34-3-3s1.33-3 3-3c1.64 0 3 1.34 3 3zm-12.03 0c0 1.66-1.36 3-3 3-1.67 0-3-1.34-3-3s1.33-3 3-3c1.64 0 3 1.34 3 3zm-12.03 0c0 1.66-1.34 3-3 3s-3-1.34-3-3 1.34-3 3-3 3 1.34 3 3zm-12.02 0c0 1.66-1.34 3-3 3s-3-1.34-3-3 1.34-3 3-3 3 1.34 3 3zm-12.02 0c0 1.66-1.34 3-3 3s-3-1.34-3-3 1.34-3 3-3 3 1.34 3 3zm-12.02 0c0 1.66-1.33 3-3 3-1.65 0-3-1.34-3-3s1.35-3 3-3c1.67 0 3 1.34 3 3zm-12 0c0 1.66-1.35 3-3 3-1.66 0-3-1.34-3-3s1.34-3 3-3c1.65 0 3 1.34 3 3zm-12.03 0c0 1.66-1.34 3-3 3-1.65 0-3-1.34-3-3s1.35-3 3-3c1.66 0 3 1.34 3 3zm-12 0c0 1.66-1.36 3-3 3-1.67 0-3-1.34-3-3s1.33-3 3-3c1.64 0 3 1.34 3 3zm-12.03 0c0 1.66-1.35 3-3 3-1.66 0-3-1.34-3-3s1.34-3 3-3c1.65 0 3 1.34 3 3zm-12.02 0c0 1.66-1.35 3-3 3-1.66 0-3-1.34-3-3s1.34-3 3-3c1.65 0 3 1.34 3 3zm-12.02 0c0 1.66-1.35 3-3 3-1.66 0-3-1.34-3-3s1.34-3 3-3c1.65 0 3 1.34 3 3zm-12.02 0c0 1.66-1.34 3-3 3s-3-1.34-3-3 1.34-3 3-3 3 1.34 3 3zm-12.02 0c0 1.66-1.34 3-3 3s-3-1.34-3-3 1.34-3 3-3 3 1.34 3 3zm-12.02 0c0 1.66-1.34 3-3 3s-3-1.34-3-3 1.34-3 3-3 3 1.34 3 3zm-12.02 0c0 1.66-1.34 3-3 3-1.65 0-3-1.34-3-3s1.35-3 3-3c1.66 0 3 1.34 3 3zm-12.02 0c0 1.66-1.34 3-3 3-1.65 0-3-1.34-3-3s1.35-3 3-3c1.66 0 3 1.34 3 3zm-12 0c0 1.66-1.36 3-3 3-1.67 0-3-1.34-3-3s1.33-3 3-3c1.64 0 3 1.34 3 3zm-12.03 0c0 1.66-1.35 3-3 3-1.66 0-3-1.34-3-3s1.34-3 3-3c1.65 0 3 1.34 3 3zm-12.02 0c0 1.66-1.35 3-3 3-1.66 0-3-1.34-3-3s1.34-3 3-3c1.65 0 3 1.34 3 3zm-12.02 0c0 1.66-1.35 3-3 3-1.66 0-3-1.34-3-3s1.34-3 3-3c1.65 0 3 1.34 3 3zm-12.02 0c0 1.66-1.33 3-3 3-1.65 0-3-1.34-3-3s1.35-3 3-3c1.67 0 3 1.34 3 3zm-12 0c0 1.66-1.35 3-3 3-1.67 0-3-1.34-3-3s1.33-3 3-3c1.65 0 3 1.34 3 3zm-12.03 0c0 1.66-1.34 3-3 3-1.65 0-3-1.34-3-3s1.35-3 3-3c1.66 0 3 1.34 3 3zm-12.02 0c0 1.66-1.34 3-3 3-1.65 0-3-1.34-3-3s1.35-3 3-3c1.66 0 3 1.34 3 3zm-12.02 0c0 1.66-1.34 3-3 3-1.65 0-3-1.34-3-3s1.35-3 3-3c1.66 0 3 1.34 3 3zm-12.02 0c0 1.66-1.33 3-3 3-1.64 0-3-1.34-3-3s1.36-3 3-3c1.67 0 3 1.34 3 3zm-12 0c0 1.66-1.35 3-3 3-1.66 0-3-1.34-3-3s1.34-3 3-3c1.65 0 3 1.34 3 3zm-12.02 0c0 1.66-1.35 3-3 3-1.66 0-3-1.34-3-3s1.34-3 3-3c1.65 0 3 1.34 3 3zm-12.02 0c0 1.66-1.34 3-3 3s-3-1.34-3-3 1.34-3 3-3 3 1.34 3 3zm-12.02 0c0 1.66-1.34 3-3 3s-3-1.34-3-3 1.34-3 3-3 3 1.34 3 3zm-12.02 0c0 1.66-1.34 3-3 3s-3-1.34-3-3 1.34-3 3-3 3 1.34 3 3zm-12.02 0c0 1.66-1.34 3-3 3-1.65 0-3-1.34-3-3s1.35-3 3-3c1.66 0 3 1.34 3 3zm-12.02 0c0 1.66-1.34 3-3 3-1.65 0-3-1.34-3-3s1.35-3 3-3c1.66 0 3 1.34 3 3zm-12.02 0c0 1.66-1.34 3-3 3-1.65 0-3-1.34-3-3s1.35-3 3-3c1.66 0 3 1.34 3 3zm-12.02 0c0 1.66-1.34 3-3 3-1.65 0-3-1.34-3-3s1.35-3 3-3c1.66 0 3 1.34 3 3zm-12 0c0 1.66-1.36 3-3 3-1.67 0-3-1.34-3-3s1.33-3 3-3c1.64 0 3 1.34 3 3zm-12.03 0c0 1.66-1.34 3-3 3-1.65 0-3-1.34-3-3s1.35-3 3-3c1.66 0 3 1.34 3 3zm-12 0c0 1.66-1.35 3-3 3-1.67 0-3-1.34-3-3s1.33-3 3-3c1.65 0 3 1.34 3 3zm-12.03 0c0 1.66-1.34 3-3 3s-3-1.34-3-3 1.34-3 3-3 3 1.34 3 3zm-12.02 0c0 1.66-1.34 3-3 3s-3-1.34-3-3 1.34-3 3-3 3 1.34 3 3zm-12.02 0c0 1.66-1.34 3-3 3s-3-1.34-3-3 1.34-3 3-3 3 1.34 3 3zm-12.02 0c0 1.66-1.33 3-3 3-1.64 0-3-1.34-3-3s1.36-3 3-3c1.67 0 3 1.34 3 3zm-12 0c0 1.66-1.35 3-3 3-1.66 0-3-1.34-3-3s1.34-3 3-3c1.65 0 3 1.34 3 3zm-12.02 0c0 1.66-1.35 3-3 3-1.66 0-3-1.34-3-3s1.34-3 3-3c1.65 0 3 1.34 3 3zm-12.02 0c0 1.66-1.35 3-3 3-1.66 0-3-1.34-3-3s1.34-3 3-3c1.65 0 3 1.34 3 3zm-12.02 0c0 1.66-1.35 3-3 3-1.66 0-3-1.34-3-3s1.34-3 3-3c1.65 0 3 1.34 3 3zm-12.02 0c0 1.66-1.34 3-3 3s-3-1.34-3-3 1.34-3 3-3 3 1.34 3 3zm-12.02 0c0 1.66-1.34 3-3 3s-3-1.34-3-3 1.34-3 3-3 3 1.34 3 3zm-12.02 0c0 1.66-1.34 3-3 3s-3-1.34-3-3 1.34-3 3-3 3 1.34 3 3zm-12.02 0c0 1.66-1.34 3-3 3s-3-1.34-3-3 1.34-3 3-3 3 1.34 3 3zm-12.02 0c0 1.66-1.34 3-3 3-1.65 0-3-1.34-3-3s1.35-3 3-3c1.66 0 3 1.34 3 3z" fill="#333"/><path d="M1800 574.02v5.92h-3.08v-6h3.1zM992.02 383h-3.52l.13-.6.65-4.98.02-.42h2.72z" stroke="#333" stroke-width=".05" fill="#333"/><path d="M874.58 374.33c0 1.66-1.35 3-3 3-1.66 0-3-1.34-3-3s1.34-3 3-3c1.65 0 3 1.34 3 3zm-11.64 0c0 1.66-1.34 3-3 3-1.65 0-3-1.34-3-3s1.35-3 3-3c1.66 0 3 1.34 3 3zm-11.63 0c0 1.66-1.33 3-3 3-1.65 0-3-1.34-3-3s1.35-3 3-3c1.67 0 3 1.34 3 3zm-11.63 0c0 1.66-1.34 3-3 3-1.65 0-3-1.34-3-3s1.35-3 3-3c1.66 0 3 1.34 3 3zm-11.63 0c0 1.66-1.34 3-3 3s-3-1.34-3-3 1.34-3 3-3 3 1.34 3 3zm-11.64 0c0 1.66-1.34 3-3 3-1.65 0-3-1.34-3-3s1.35-3 3-3c1.66 0 3 1.34 3 3zm-11.63 0c0 1.66-1.34 3-3 3s-3-1.34-3-3 1.34-3 3-3 3 1.34 3 3zm-11.63 0c0 1.66-1.35 3-3 3-1.66 0-3-1.34-3-3s1.34-3 3-3c1.65 0 3 1.34 3 3zm-11.64 0c0 1.66-1.34 3-3 3s-3-1.34-3-3 1.34-3 3-3 3 1.34 3 3zm-5 17.07c0 1.66-1.34 3-3 3s-3-1.34-3-3c0-1.65 1.34-3 3-3s3 1.35 3 3zm0 12.08c0 1.66-1.34 3-3 3s-3-1.34-3-3 1.34-3 3-3 3 1.34 3 3zm0 12.07c0 1.66-1.34 3-3 3s-3-1.34-3-3c0-1.65 1.34-3 3-3s3 1.35 3 3zm0 12.08c0 1.66-1.34 3-3 3s-3-1.34-3-3 1.34-3 3-3 3 1.34 3 3zm0 12.07c0 1.66-1.34 3-3 3s-3-1.34-3-3c0-1.65 1.34-3 3-3s3 1.35 3 3zm0 12.08c0 1.65-1.34 3-3 3s-3-1.35-3-3c0-1.66 1.34-3 3-3s3 1.34 3 3zm0 12.07c0 1.66-1.34 3-3 3s-3-1.34-3-3 1.34-3 3-3 3 1.34 3 3zm0 12.07c0 1.66-1.34 3-3 3s-3-1.34-3-3c0-1.65 1.34-3 3-3s3 1.35 3 3zm0 12.08c0 1.66-1.34 3-3 3s-3-1.34-3-3 1.34-3 3-3 3 1.34 3 3zm0 12.07c0 1.66-1.34 3-3 3s-3-1.34-3-3c0-1.65 1.34-3 3-3s3 1.35 3 3zm0 12.08c0 1.65-1.34 3-3 3s-3-1.35-3-3c0-1.66 1.34-3 3-3s3 1.34 3 3zm0 12.07c0 1.66-1.34 3-3 3s-3-1.34-3-3c0-1.65 1.34-3 3-3s3 1.35 3 3zm0 12.08c0 1.65-1.34 3-3 3s-3-1.35-3-3c0-1.66 1.34-3 3-3s3 1.34 3 3zm0 12.07c0 1.66-1.34 3-3 3s-3-1.34-3-3c0-1.65 1.34-3 3-3s3 1.35 3 3zm0 12.08c0 1.65-1.34 3-3 3s-3-1.35-3-3c0-1.66 1.34-3 3-3s3 1.34 3 3zm0 12.07c0 1.66-1.34 3-3 3s-3-1.34-3-3 1.34-3 3-3 3 1.34 3 3zm0 12.08c0 1.65-1.34 3-3 3s-3-1.35-3-3c0-1.66 1.34-3 3-3s3 1.34 3 3zm0 12.07c0 1.66-1.34 3-3 3s-3-1.34-3-3 1.34-3 3-3 3 1.34 3 3zm0 12.07c0 1.66-1.34 3-3 3s-3-1.34-3-3c0-1.65 1.34-3 3-3s3 1.35 3 3zm0 12.08c0 1.65-1.34 3-3 3s-3-1.35-3-3c0-1.66 1.34-3 3-3s3 1.34 3 3zm0 12.07c0 1.65-1.34 3-3 3s-3-1.35-3-3c0-1.66 1.34-3 3-3s3 1.34 3 3zm0 12.07c0 1.65-1.34 3-3 3s-3-1.35-3-3c0-1.66 1.34-3 3-3s3 1.34 3 3zm0 12.07c0 1.66-1.34 3-3 3s-3-1.34-3-3 1.34-3 3-3 3 1.34 3 3zm0 12.08c0 1.65-1.34 3-3 3s-3-1.35-3-3c0-1.66 1.34-3 3-3s3 1.34 3 3zm0 12.07c0 1.65-1.34 3-3 3s-3-1.35-3-3c0-1.67 1.34-3 3-3s3 1.33 3 3zm0 12.06c0 1.66-1.34 3-3 3s-3-1.34-3-3c0-1.65 1.34-3 3-3s3 1.35 3 3zm0 12.08c0 1.65-1.34 3-3 3s-3-1.35-3-3c0-1.66 1.34-3 3-3s3 1.34 3 3zm0 12.07c0 1.67-1.34 3-3 3s-3-1.33-3-3c0-1.64 1.34-3 3-3s3 1.36 3 3zm0 12.1c0 1.64-1.34 3-3 3s-3-1.36-3-3c0-1.67 1.34-3 3-3s3 1.33 3 3zm0 12.06c0 1.66-1.34 3-3 3s-3-1.34-3-3 1.34-3 3-3 3 1.34 3 3zm0 12.08c0 1.65-1.34 3-3 3s-3-1.35-3-3c0-1.66 1.34-3 3-3s3 1.34 3 3zm0 12.07c0 1.67-1.34 3-3 3s-3-1.33-3-3c0-1.65 1.34-3 3-3s3 1.35 3 3zm0 12.08c0 1.66-1.34 3-3 3s-3-1.34-3-3c0-1.65 1.34-3 3-3s3 1.35 3 3zm0 12.08c0 1.66-1.34 3-3 3s-3-1.34-3-3 1.34-3 3-3 3 1.34 3 3zm0 12.07c0 1.66-1.34 3-3 3s-3-1.34-3-3c0-1.65 1.34-3 3-3s3 1.35 3 3zm0 12.08c0 1.66-1.34 3-3 3s-3-1.34-3-3c0-1.65 1.34-3 3-3s3 1.35 3 3zm0 12.08c0 1.66-1.34 3-3 3s-3-1.34-3-3 1.34-3 3-3 3 1.34 3 3zm0 12.08c0 1.65-1.34 3-3 3s-3-1.35-3-3c0-1.66 1.34-3 3-3s3 1.34 3 3zm0 12.07c0 1.66-1.34 3-3 3s-3-1.34-3-3 1.34-3 3-3 3 1.34 3 3zm0 12.07c0 1.66-1.34 3-3 3s-3-1.34-3-3c0-1.65 1.34-3 3-3s3 1.35 3 3zm0 12.08c0 1.66-1.34 3-3 3s-3-1.34-3-3 1.34-3 3-3 3 1.34 3 3zm0 12.07c0 1.66-1.34 3-3 3s-3-1.34-3-3c0-1.65 1.34-3 3-3s3 1.35 3 3zm0 12.08c0 1.65-1.34 3-3 3s-3-1.35-3-3c0-1.66 1.34-3 3-3s3 1.34 3 3zm0 12.07c0 1.66-1.34 3-3 3s-3-1.34-3-3c0-1.65 1.34-3 3-3s3 1.35 3 3z" fill="#333"/><path d="M874.5 372.35v.54l.24 4.43h-3.24v-6h3zM776.5 913.6h-6v-3.07h6z" stroke="#333" stroke-width=".05" fill="#333"/><path d="M950 1360.5" stroke="#333" fill="none"/><path stroke="#333" stroke-width=".05" fill="#333"/><path stroke="#333" stroke-width=".05" fill="#333"/><path d="M165.96 616.07c0 1.66-1.34 3-3 3s-3-1.34-3-3 1.34-3 3-3 3 1.34 3 3zm11.6 0c0 1.66-1.34 3-3 3-1.65 0-3-1.34-3-3s1.35-3 3-3c1.66 0 3 1.34 3 3zm11.6 0c0 1.66-1.34 3-3 3-1.65 0-3-1.34-3-3s1.35-3 3-3c1.66 0 3 1.34 3 3zm11.6 0c0 1.66-1.33 3-3 3-1.65 0-3-1.34-3-3s1.35-3 3-3c1.67 0 3 1.34 3 3zm11.6 0c0 1.66-1.33 3-3 3-1.65 0-3-1.34-3-3s1.35-3 3-3c1.67 0 3 1.34 3 3zm11.6 0c0 1.66-1.33 3-3 3-1.64 0-3-1.34-3-3s1.36-3 3-3c1.67 0 3 1.34 3 3zm11.62 0c0 1.66-1.35 3-3 3-1.66 0-3-1.34-3-3s1.34-3 3-3c1.65 0 3 1.34 3 3zm11.6 0c0 1.66-1.34 3-3 3s-3-1.34-3-3 1.34-3 3-3 3 1.34 3 3zm11.6 0c0 1.66-1.34 3-3 3s-3-1.34-3-3 1.34-3 3-3 3 1.34 3 3zm11.6 0c0 1.66-1.34 3-3 3-1.65 0-3-1.34-3-3s1.35-3 3-3c1.66 0 3 1.34 3 3zm11.6 0c0 1.66-1.34 3-3 3-1.65 0-3-1.34-3-3s1.35-3 3-3c1.66 0 3 1.34 3 3zm11.6 0c0 1.66-1.33 3-3 3-1.65 0-3-1.34-3-3s1.35-3 3-3c1.67 0 3 1.34 3 3zm11.6 0c0 1.66-1.33 3-3 3-1.64 0-3-1.34-3-3s1.36-3 3-3c1.67 0 3 1.34 3 3zm11.62 0c0 1.66-1.35 3-3 3-1.66 0-3-1.34-3-3s1.34-3 3-3c1.65 0 3 1.34 3 3zm11.6 0c0 1.66-1.35 3-3 3-1.66 0-3-1.34-3-3s1.34-3 3-3c1.65 0 3 1.34 3 3z" fill="#333"/><path d="M163.04 619.07h-3.1l.06-2.04-.16-3.96h3.2zM340 619.07h-3.08v-6H340z" stroke="#333" stroke-width=".05" fill="#333"/><path d="M395.5 659.98c0 1.65-1.35 3-3 3-1.66 0-3-1.35-3-3 0-1.66 1.34-3 3-3 1.65 0 3 1.34 3 3zm12.5 0c0 1.65-1.34 3-3 3s-3-1.35-3-3c0-1.66 1.34-3 3-3s3 1.34 3 3zm5 17c0 1.65-1.34 3-3 3s-3-1.35-3-3c0-1.66 1.34-3 3-3s3 1.34 3 3zm0 12c0 1.65-1.34 3-3 3s-3-1.35-3-3c0-1.66 1.34-3 3-3s3 1.34 3 3zm0 12c0 1.65-1.34 3-3 3s-3-1.35-3-3c0-1.66 1.34-3 3-3s3 1.34 3 3zm0 12c0 1.65-1.34 3-3 3s-3-1.35-3-3c0-1.66 1.34-3 3-3s3 1.34 3 3zm0 12c0 1.65-1.34 3-3 3s-3-1.35-3-3c0-1.66 1.34-3 3-3s3 1.34 3 3zm0 12c0 1.65-1.34 3-3 3s-3-1.35-3-3c0-1.66 1.34-3 3-3s3 1.34 3 3zm0 12c0 1.65-1.34 3-3 3s-3-1.35-3-3c0-1.66 1.34-3 3-3s3 1.34 3 3zm0 12c0 1.66-1.34 3-3 3s-3-1.34-3-3 1.34-3 3-3 3 1.34 3 3zm0 12c0 1.66-1.34 3-3 3s-3-1.34-3-3 1.34-3 3-3 3 1.34 3 3zm0 12c0 1.66-1.34 3-3 3s-3-1.34-3-3 1.34-3 3-3 3 1.34 3 3zm0 12c0 1.66-1.34 3-3 3s-3-1.34-3-3 1.34-3 3-3 3 1.34 3 3zm0 12c0 1.66-1.34 3-3 3s-3-1.34-3-3 1.34-3 3-3 3 1.34 3 3zm0 12c0 1.66-1.34 3-3 3s-3-1.34-3-3c0-1.65 1.34-3 3-3s3 1.35 3 3zm0 12c0 1.66-1.34 3-3 3s-3-1.34-3-3c0-1.65 1.34-3 3-3s3 1.35 3 3zm0 12c0 1.66-1.34 3-3 3s-3-1.34-3-3c0-1.65 1.34-3 3-3s3 1.35 3 3zm0 12c0 1.66-1.34 3-3 3s-3-1.34-3-3c0-1.65 1.34-3 3-3s3 1.35 3 3zm0 12c0 1.66-1.34 3-3 3s-3-1.34-3-3c0-1.65 1.34-3 3-3s3 1.35 3 3zm0 12c0 1.66-1.34 3-3 3s-3-1.34-3-3c0-1.65 1.34-3 3-3s3 1.35 3 3zm0 12c0 1.66-1.34 3-3 3s-3-1.34-3-3c0-1.65 1.34-3 3-3s3 1.35 3 3zm0 12c0 1.66-1.34 3-3 3s-3-1.34-3-3c0-1.65 1.34-3 3-3s3 1.35 3 3zm0 12c0 1.66-1.34 3-3 3s-3-1.34-3-3c0-1.65 1.34-3 3-3s3 1.35 3 3zm0 12c0 1.66-1.34 3-3 3s-3-1.34-3-3c0-1.65 1.34-3 3-3s3 1.35 3 3zm0 12c0 1.66-1.34 3-3 3s-3-1.34-3-3c0-1.65 1.34-3 3-3s3 1.35 3 3zm0 12c0 1.66-1.34 3-3 3s-3-1.34-3-3c0-1.65 1.34-3 3-3s3 1.35 3 3zm0 12c0 1.66-1.34 3-3 3s-3-1.34-3-3c0-1.65 1.34-3 3-3s3 1.35 3 3zm0 12c0 1.66-1.34 3-3 3s-3-1.34-3-3c0-1.65 1.34-3 3-3s3 1.35 3 3zm0 12c0 1.66-1.34 3-3 3s-3-1.34-3-3c0-1.65 1.34-3 3-3s3 1.35 3 3zm0 12c0 1.67-1.34 3-3 3s-3-1.33-3-3c0-1.65 1.34-3 3-3s3 1.35 3 3zm0 12c0 1.67-1.34 3-3 3s-3-1.33-3-3c0-1.65 1.34-3 3-3s3 1.35 3 3zm0 12c0 1.67-1.34 3-3 3s-3-1.33-3-3c0-1.65 1.34-3 3-3s3 1.35 3 3zm0 12c0 1.67-1.34 3-3 3s-3-1.33-3-3c0-1.65 1.34-3 3-3s3 1.35 3 3zm0 12c0 1.67-1.34 3-3 3s-3-1.33-3-3c0-1.65 1.34-3 3-3s3 1.35 3 3zm0 12c0 1.67-1.34 3-3 3s-3-1.33-3-3c0-1.64 1.34-3 3-3s3 1.36 3 3zm0 12c0 1.67-1.34 3-3 3s-3-1.33-3-3c0-1.64 1.34-3 3-3s3 1.36 3 3zm0 12c0 1.67-1.34 3-3 3s-3-1.33-3-3c0-1.64 1.34-3 3-3s3 1.36 3 3zm0 12c0 1.67-1.34 3-3 3s-3-1.33-3-3c0-1.64 1.34-3 3-3s3 1.36 3 3zm0 12c0 1.67-1.34 3-3 3s-3-1.33-3-3c0-1.64 1.34-3 3-3s3 1.36 3 3zm0 12c0 1.67-1.34 3-3 3s-3-1.33-3-3c0-1.64 1.34-3 3-3s3 1.36 3 3zm0 12c0 1.67-1.34 3-3 3s-3-1.33-3-3c0-1.64 1.34-3 3-3s3 1.36 3 3zm0 12c0 1.67-1.34 3-3 3s-3-1.33-3-3c0-1.64 1.34-3 3-3s3 1.36 3 3zm0 12c0 1.67-1.34 3-3 3s-3-1.33-3-3c0-1.64 1.34-3 3-3s3 1.36 3 3zm0 12.02c0 1.65-1.34 3-3 3s-3-1.35-3-3c0-1.66 1.34-3 3-3s3 1.34 3 3zm0 12c0 1.65-1.34 3-3 3s-3-1.35-3-3c0-1.66 1.34-3 3-3s3 1.34 3 3zm0 12c0 1.65-1.34 3-3 3s-3-1.35-3-3c0-1.66 1.34-3 3-3s3 1.34 3 3zm0 12c0 1.65-1.34 3-3 3s-3-1.35-3-3c0-1.66 1.34-3 3-3s3 1.34 3 3zm0 12c0 1.65-1.34 3-3 3s-3-1.35-3-3c0-1.66 1.34-3 3-3s3 1.34 3 3zm0 12c0 1.65-1.34 3-3 3s-3-1.35-3-3c0-1.66 1.34-3 3-3s3 1.34 3 3zm0 12c0 1.66-1.34 3-3 3s-3-1.34-3-3 1.34-3 3-3 3 1.34 3 3zm0 12c0 1.66-1.34 3-3 3s-3-1.34-3-3 1.34-3 3-3 3 1.34 3 3zm0 12c0 1.66-1.34 3-3 3s-3-1.34-3-3 1.34-3 3-3 3 1.34 3 3zm17.02 5c0 1.66-1.34 3-3 3-1.65 0-3-1.34-3-3s1.35-3 3-3c1.66 0 3 1.34 3 3zm12.03 0c0 1.66-1.35 3-3 3-1.66 0-3-1.34-3-3s1.34-3 3-3c1.65 0 3 1.34 3 3zm12.02 0c0 1.66-1.35 3-3 3-1.66 0-3-1.34-3-3s1.34-3 3-3c1.65 0 3 1.34 3 3zm12.02 0c0 1.66-1.35 3-3 3-1.67 0-3-1.34-3-3s1.33-3 3-3c1.65 0 3 1.34 3 3zm12 0c0 1.66-1.33 3-3 3-1.64 0-3-1.34-3-3s1.36-3 3-3c1.67 0 3 1.34 3 3zm12.03 0c0 1.66-1.34 3-3 3-1.65 0-3-1.34-3-3s1.35-3 3-3c1.66 0 3 1.34 3 3zm12.03 0c0 1.66-1.35 3-3 3-1.66 0-3-1.34-3-3s1.34-3 3-3c1.65 0 3 1.34 3 3zm12.02 0c0 1.66-1.34 3-3 3s-3-1.34-3-3 1.34-3 3-3 3 1.34 3 3zm12.02 0c0 1.66-1.34 3-3 3s-3-1.34-3-3 1.34-3 3-3 3 1.34 3 3zm12.02 0c0 1.66-1.34 3-3 3-1.65 0-3-1.34-3-3s1.35-3 3-3c1.66 0 3 1.34 3 3zm12.03 0c0 1.66-1.35 3-3 3-1.66 0-3-1.34-3-3s1.34-3 3-3c1.65 0 3 1.34 3 3zm12.02 0c0 1.66-1.34 3-3 3s-3-1.34-3-3 1.34-3 3-3 3 1.34 3 3zm12.02 0c0 1.66-1.35 3-3 3-1.66 0-3-1.34-3-3s1.34-3 3-3c1.65 0 3 1.34 3 3zm12.02 0c0 1.66-1.35 3-3 3-1.66 0-3-1.34-3-3s1.34-3 3-3c1.65 0 3 1.34 3 3zm12.02 0c0 1.66-1.35 3-3 3-1.66 0-3-1.34-3-3s1.34-3 3-3c1.65 0 3 1.34 3 3zm12.02 0c0 1.66-1.34 3-3 3s-3-1.34-3-3 1.34-3 3-3 3 1.34 3 3zm12.02 0c0 1.66-1.34 3-3 3-1.65 0-3-1.34-3-3s1.35-3 3-3c1.66 0 3 1.34 3 3zm12.02 0c0 1.66-1.34 3-3 3-1.65 0-3-1.34-3-3s1.35-3 3-3c1.66 0 3 1.34 3 3zm12.03 0c0 1.66-1.35 3-3 3-1.66 0-3-1.34-3-3s1.34-3 3-3c1.65 0 3 1.34 3 3zm12.02 0c0 1.66-1.34 3-3 3s-3-1.34-3-3 1.34-3 3-3 3 1.34 3 3zm12.02 0c0 1.66-1.34 3-3 3-1.65 0-3-1.34-3-3s1.35-3 3-3c1.66 0 3 1.34 3 3zm12.02 0c0 1.66-1.35 3-3 3-1.66 0-3-1.34-3-3s1.34-3 3-3c1.65 0 3 1.34 3 3zm12.02 0c0 1.66-1.35 3-3 3-1.66 0-3-1.34-3-3s1.34-3 3-3c1.65 0 3 1.34 3 3zm12.02 0c0 1.66-1.34 3-3 3s-3-1.34-3-3 1.34-3 3-3 3 1.34 3 3zm12.02 0c0 1.66-1.34 3-3 3-1.65 0-3-1.34-3-3s1.35-3 3-3c1.66 0 3 1.34 3 3zm12.02 0c0 1.66-1.34 3-3 3-1.65 0-3-1.34-3-3s1.35-3 3-3c1.66 0 3 1.34 3 3zm12.03 0c0 1.66-1.34 3-3 3-1.65 0-3-1.34-3-3s1.35-3 3-3c1.66 0 3 1.34 3 3zm12.03 0c0 1.66-1.34 3-3 3s-3-1.34-3-3 1.34-3 3-3 3 1.34 3 3zm12.02 0c0 1.66-1.34 3-3 3-1.65 0-3-1.34-3-3s1.35-3 3-3c1.66 0 3 1.34 3 3zm12.02 0c0 1.66-1.34 3-3 3-1.65 0-3-1.34-3-3s1.35-3 3-3c1.66 0 3 1.34 3 3zm12.03 0c0 1.66-1.35 3-3 3-1.66 0-3-1.34-3-3s1.34-3 3-3c1.65 0 3 1.34 3 3zm12.02 0c0 1.66-1.34 3-3 3s-3-1.34-3-3 1.34-3 3-3 3 1.34 3 3zm12.02 0c0 1.66-1.34 3-3 3-1.65 0-3-1.34-3-3s1.35-3 3-3c1.66 0 3 1.34 3 3zm12.02 0c0 1.66-1.34 3-3 3-1.65 0-3-1.34-3-3s1.35-3 3-3c1.66 0 3 1.34 3 3zm12.03 0c0 1.66-1.36 3-3 3-1.67 0-3-1.34-3-3s1.33-3 3-3c1.64 0 3 1.34 3 3zm12 0c0 1.66-1.33 3-3 3-1.65 0-3-1.34-3-3s1.35-3 3-3c1.67 0 3 1.34 3 3zm12.03 0c0 1.66-1.34 3-3 3s-3-1.34-3-3 1.34-3 3-3 3 1.34 3 3zm12.02 0c0 1.66-1.34 3-3 3-1.65 0-3-1.34-3-3s1.35-3 3-3c1.66 0 3 1.34 3 3zm12.03 0c0 1.66-1.35 3-3 3-1.66 0-3-1.34-3-3s1.34-3 3-3c1.65 0 3 1.34 3 3zm12.02 0c0 1.66-1.34 3-3 3s-3-1.34-3-3 1.34-3 3-3 3 1.34 3 3zm12.02 0c0 1.66-1.34 3-3 3s-3-1.34-3-3 1.34-3 3-3 3 1.34 3 3zm12.02 0c0 1.66-1.34 3-3 3-1.65 0-3-1.34-3-3s1.35-3 3-3c1.66 0 3 1.34 3 3zm12.03 0c0 1.66-1.35 3-3 3-1.66 0-3-1.34-3-3s1.34-3 3-3c1.65 0 3 1.34 3 3zm12.02 0c0 1.66-1.35 3-3 3-1.67 0-3-1.34-3-3s1.33-3 3-3c1.65 0 3 1.34 3 3zm12 0c0 1.66-1.33 3-3 3-1.65 0-3-1.34-3-3s1.35-3 3-3c1.67 0 3 1.34 3 3zm12.03 0c0 1.66-1.34 3-3 3-1.65 0-3-1.34-3-3s1.35-3 3-3c1.66 0 3 1.34 3 3zm12.03 0c0 1.66-1.35 3-3 3-1.66 0-3-1.34-3-3s1.34-3 3-3c1.65 0 3 1.34 3 3zm12.02 0c0 1.66-1.34 3-3 3s-3-1.34-3-3 1.34-3 3-3 3 1.34 3 3zm12.02 0c0 1.66-1.34 3-3 3s-3-1.34-3-3 1.34-3 3-3 3 1.34 3 3zm12.02 0c0 1.66-1.34 3-3 3-1.65 0-3-1.34-3-3s1.35-3 3-3c1.66 0 3 1.34 3 3zm12.03 0c0 1.66-1.35 3-3 3-1.66 0-3-1.34-3-3s1.34-3 3-3c1.65 0 3 1.34 3 3zm12.02 0c0 1.66-1.35 3-3 3-1.66 0-3-1.34-3-3s1.34-3 3-3c1.65 0 3 1.34 3 3zm12.02 0c0 1.66-1.35 3-3 3-1.67 0-3-1.34-3-3s1.33-3 3-3c1.65 0 3 1.34 3 3zm12 0c0 1.66-1.33 3-3 3-1.64 0-3-1.34-3-3s1.36-3 3-3c1.67 0 3 1.34 3 3zm12.04 0c0 1.66-1.35 3-3 3-1.66 0-3-1.34-3-3s1.34-3 3-3c1.65 0 3 1.34 3 3zm12.02 0c0 1.66-1.35 3-3 3-1.66 0-3-1.34-3-3s1.34-3 3-3c1.65 0 3 1.34 3 3zm12.02 0c0 1.66-1.34 3-3 3s-3-1.34-3-3 1.34-3 3-3 3 1.34 3 3zm12.02 0c0 1.66-1.34 3-3 3-1.65 0-3-1.34-3-3s1.35-3 3-3c1.66 0 3 1.34 3 3zm12.03 0c0 1.66-1.35 3-3 3-1.66 0-3-1.34-3-3s1.34-3 3-3c1.65 0 3 1.34 3 3zm12.02 0c0 1.66-1.34 3-3 3s-3-1.34-3-3 1.34-3 3-3 3 1.34 3 3zm12.02 0c0 1.66-1.34 3-3 3s-3-1.34-3-3 1.34-3 3-3 3 1.34 3 3zm12.02 0c0 1.66-1.35 3-3 3-1.66 0-3-1.34-3-3s1.34-3 3-3c1.65 0 3 1.34 3 3zm12.02 0c0 1.66-1.35 3-3 3-1.66 0-3-1.34-3-3s1.34-3 3-3c1.65 0 3 1.34 3 3zm12.02 0c0 1.66-1.35 3-3 3-1.66 0-3-1.34-3-3s1.34-3 3-3c1.65 0 3 1.34 3 3zm12.02 0c0 1.66-1.34 3-3 3s-3-1.34-3-3 1.34-3 3-3 3 1.34 3 3zm12.02 0c0 1.66-1.34 3-3 3-1.65 0-3-1.34-3-3s1.35-3 3-3c1.66 0 3 1.34 3 3zm12.03 0c0 1.66-1.34 3-3 3-1.65 0-3-1.34-3-3s1.35-3 3-3c1.66 0 3 1.34 3 3zm12.03 0c0 1.66-1.35 3-3 3-1.66 0-3-1.34-3-3s1.34-3 3-3c1.65 0 3 1.34 3 3zm12.02 0c0 1.66-1.34 3-3 3s-3-1.34-3-3 1.34-3 3-3 3 1.34 3 3zm12.02 0c0 1.66-1.34 3-3 3-1.65 0-3-1.34-3-3s1.35-3 3-3c1.66 0 3 1.34 3 3zm12.03 0c0 1.66-1.35 3-3 3-1.66 0-3-1.34-3-3s1.34-3 3-3c1.65 0 3 1.34 3 3zm12.02 0c0 1.66-1.34 3-3 3s-3-1.34-3-3 1.34-3 3-3 3 1.34 3 3zm12.02 0c0 1.66-1.34 3-3 3s-3-1.34-3-3 1.34-3 3-3 3 1.34 3 3zm12.02 0c0 1.66-1.34 3-3 3-1.65 0-3-1.34-3-3s1.35-3 3-3c1.66 0 3 1.34 3 3zm12.02 0c0 1.66-1.34 3-3 3-1.65 0-3-1.34-3-3s1.35-3 3-3c1.66 0 3 1.34 3 3zm12.03 0c0 1.66-1.34 3-3 3-1.65 0-3-1.34-3-3s1.35-3 3-3c1.66 0 3 1.34 3 3zm12.03 0c0 1.66-1.34 3-3 3s-3-1.34-3-3 1.34-3 3-3 3 1.34 3 3zm12.02 0c0 1.66-1.34 3-3 3-1.65 0-3-1.34-3-3s1.35-3 3-3c1.66 0 3 1.34 3 3zm12.03 0c0 1.66-1.35 3-3 3-1.66 0-3-1.34-3-3s1.34-3 3-3c1.65 0 3 1.34 3 3zm12.02 0c0 1.66-1.35 3-3 3-1.66 0-3-1.34-3-3s1.34-3 3-3c1.65 0 3 1.34 3 3zm12.02 0c0 1.66-1.34 3-3 3s-3-1.34-3-3 1.34-3 3-3 3 1.34 3 3zm12.02 0c0 1.66-1.34 3-3 3-1.65 0-3-1.34-3-3s1.35-3 3-3c1.66 0 3 1.34 3 3zm12.03 0c0 1.66-1.35 3-3 3-1.66 0-3-1.34-3-3s1.34-3 3-3c1.65 0 3 1.34 3 3zm12.02 0c0 1.66-1.36 3-3 3-1.67 0-3-1.34-3-3s1.33-3 3-3c1.64 0 3 1.34 3 3zm12 0c0 1.66-1.33 3-3 3-1.65 0-3-1.34-3-3s1.35-3 3-3c1.67 0 3 1.34 3 3zm12.03 0c0 1.66-1.34 3-3 3-1.65 0-3-1.34-3-3s1.35-3 3-3c1.66 0 3 1.34 3 3zm12.02 0c0 1.66-1.34 3-3 3-1.65 0-3-1.34-3-3s1.35-3 3-3c1.66 0 3 1.34 3 3zm12.03 0c0 1.66-1.35 3-3 3-1.66 0-3-1.34-3-3s1.34-3 3-3c1.65 0 3 1.34 3 3zm12.02 0c0 1.66-1.34 3-3 3s-3-1.34-3-3 1.34-3 3-3 3 1.34 3 3zm5-17.1c0 1.66-1.34 3-3 3s-3-1.34-3-3c0-1.65 1.34-3 3-3s3 1.35 3 3zm0-12.1c0 1.66-1.34 3-3 3s-3-1.34-3-3c0-1.65 1.34-3 3-3s3 1.35 3 3zm0-12.1c0 1.66-1.34 3-3 3s-3-1.34-3-3c0-1.65 1.34-3 3-3s3 1.35 3 3zm0-12.1c0 1.67-1.34 3-3 3s-3-1.33-3-3c0-1.65 1.34-3 3-3s3 1.35 3 3zm0-12.1c0 1.67-1.34 3-3 3s-3-1.33-3-3c0-1.64 1.34-3 3-3s3 1.36 3 3zm0-12.08c0 1.65-1.34 3-3 3s-3-1.35-3-3c0-1.66 1.34-3 3-3s3 1.34 3 3zm0-12.1c0 1.66-1.34 3-3 3s-3-1.34-3-3 1.34-3 3-3 3 1.34 3 3zm0-12.1c0 1.66-1.34 3-3 3s-3-1.34-3-3 1.34-3 3-3 3 1.34 3 3zm0-12.1c0 1.66-1.34 3-3 3s-3-1.34-3-3c0-1.65 1.34-3 3-3s3 1.35 3 3zm0-12.1c0 1.66-1.34 3-3 3s-3-1.34-3-3c0-1.65 1.34-3 3-3s3 1.35 3 3zm0-12.1c0 1.67-1.34 3-3 3s-3-1.33-3-3c0-1.65 1.34-3 3-3s3 1.35 3 3zm0-12.1c0 1.67-1.34 3-3 3s-3-1.33-3-3c0-1.64 1.34-3 3-3s3 1.36 3 3zm0-12.1c0 1.67-1.34 3-3 3s-3-1.33-3-3c0-1.64 1.34-3 3-3s3 1.36 3 3zm0-12.08c0 1.65-1.34 3-3 3s-3-1.35-3-3c0-1.66 1.34-3 3-3s3 1.34 3 3zm0-12.1c0 1.66-1.34 3-3 3s-3-1.34-3-3 1.34-3 3-3 3 1.34 3 3zm0-12.1c0 1.66-1.34 3-3 3s-3-1.34-3-3c0-1.65 1.34-3 3-3s3 1.35 3 3zm0-12.1c0 1.66-1.34 3-3 3s-3-1.34-3-3c0-1.65 1.34-3 3-3s3 1.35 3 3zm0-12.1c0 1.66-1.34 3-3 3s-3-1.34-3-3c0-1.65 1.34-3 3-3s3 1.35 3 3zm0-12.1c0 1.67-1.34 3-3 3s-3-1.33-3-3c0-1.65 1.34-3 3-3s3 1.35 3 3zm0-12.1c0 1.67-1.34 3-3 3s-3-1.33-3-3c0-1.64 1.34-3 3-3s3 1.36 3 3zm0-12.08c0 1.65-1.34 3-3 3s-3-1.35-3-3c0-1.66 1.34-3 3-3s3 1.34 3 3zm0-12.1c0 1.66-1.34 3-3 3s-3-1.34-3-3 1.34-3 3-3 3 1.34 3 3zm0-12.1c0 1.66-1.34 3-3 3s-3-1.34-3-3 1.34-3 3-3 3 1.34 3 3zm0-12.1c0 1.66-1.34 3-3 3s-3-1.34-3-3c0-1.65 1.34-3 3-3s3 1.35 3 3zm0-12.1c0 1.66-1.34 3-3 3s-3-1.34-3-3c0-1.65 1.34-3 3-3s3 1.35 3 3zm0-12.1c0 1.67-1.34 3-3 3s-3-1.33-3-3c0-1.65 1.34-3 3-3s3 1.35 3 3zm0-12.1c0 1.67-1.34 3-3 3s-3-1.33-3-3c0-1.64 1.34-3 3-3s3 1.36 3 3zm0-12.1c0 1.67-1.34 3-3 3s-3-1.33-3-3c0-1.64 1.34-3 3-3s3 1.36 3 3zm0-12.08c0 1.65-1.34 3-3 3s-3-1.35-3-3c0-1.66 1.34-3 3-3s3 1.34 3 3zm0-12.1c0 1.66-1.34 3-3 3s-3-1.34-3-3 1.34-3 3-3 3 1.34 3 3zm0-12.1c0 1.66-1.34 3-3 3s-3-1.34-3-3c0-1.65 1.34-3 3-3s3 1.35 3 3zm0-12.1c0 1.66-1.34 3-3 3s-3-1.34-3-3c0-1.65 1.34-3 3-3s3 1.35 3 3zm0-12.1c0 1.67-1.34 3-3 3s-3-1.33-3-3c0-1.65 1.34-3 3-3s3 1.35 3 3z" fill="#333"/><path d="M392.57 662.98h-6.07v-4.5l3 1.5 3.07-1.53zM1490 862.75l-.03.03h.02v-.05.06l3-1.5v4.57h-6v-4.57l2.96 1.48-1.56-3h1.6z" stroke="#333" stroke-width=".05" fill="#333"/><path d="M393 536.5c0 1.95-1.57 3.5-3.5 3.5-1.94 0-3.5-1.55-3.5-3.5 0-1.92 1.56-3.5 3.5-3.5 1.93 0 3.5 1.58 3.5 3.5zm0-14.2c0 1.94-1.57 3.5-3.5 3.5-1.94 0-3.5-1.56-3.5-3.5 0-1.93 1.56-3.5 3.5-3.5 1.93 0 3.5 1.57 3.5 3.5zm0-14.2c0 1.93-1.57 3.5-3.5 3.5-1.94 0-3.5-1.57-3.5-3.5s1.56-3.5 3.5-3.5c1.93 0 3.5 1.57 3.5 3.5zm0-14.2c0 1.93-1.57 3.5-3.5 3.5-1.94 0-3.5-1.57-3.5-3.5 0-1.94 1.56-3.5 3.5-3.5 1.93 0 3.5 1.56 3.5 3.5zm0-14.2c0 1.92-1.57 3.5-3.5 3.5-1.94 0-3.5-1.58-3.5-3.5 0-1.95 1.56-3.5 3.5-3.5 1.93 0 3.5 1.55 3.5 3.5zm0-14.22c0 1.93-1.57 3.5-3.5 3.5-1.94 0-3.5-1.57-3.5-3.5s1.56-3.5 3.5-3.5c1.93 0 3.5 1.57 3.5 3.5zm0-14.2c0 1.93-1.57 3.5-3.5 3.5-1.94 0-3.5-1.57-3.5-3.5 0-1.94 1.56-3.5 3.5-3.5 1.93 0 3.5 1.56 3.5 3.5zm0-14.2c0 1.92-1.57 3.5-3.5 3.5-1.94 0-3.5-1.58-3.5-3.5 0-1.95 1.56-3.5 3.5-3.5 1.93 0 3.5 1.55 3.5 3.5zm0-14.22c0 1.93-1.57 3.5-3.5 3.5-1.94 0-3.5-1.57-3.5-3.5s1.56-3.5 3.5-3.5c1.93 0 3.5 1.57 3.5 3.5zm0-14.2c0 1.93-1.57 3.5-3.5 3.5-1.94 0-3.5-1.57-3.5-3.5 0-1.94 1.56-3.5 3.5-3.5 1.93 0 3.5 1.56 3.5 3.5zm0-14.2c0 1.92-1.57 3.5-3.5 3.5-1.94 0-3.5-1.58-3.5-3.5 0-1.95 1.56-3.5 3.5-3.5 1.93 0 3.5 1.55 3.5 3.5zm0-14.22c0 1.93-1.57 3.5-3.5 3.5-1.94 0-3.5-1.57-3.5-3.5s1.56-3.5 3.5-3.5c1.93 0 3.5 1.57 3.5 3.5zm0-14.2c0 1.93-1.57 3.5-3.5 3.5-1.94 0-3.5-1.57-3.5-3.5 0-1.94 1.56-3.5 3.5-3.5 1.93 0 3.5 1.56 3.5 3.5zm0-14.2c0 1.92-1.57 3.5-3.5 3.5-1.94 0-3.5-1.58-3.5-3.5 0-1.95 1.56-3.5 3.5-3.5 1.93 0 3.5 1.55 3.5 3.5zm0-14.22c0 1.93-1.57 3.5-3.5 3.5-1.94 0-3.5-1.57-3.5-3.5s1.56-3.5 3.5-3.5c1.93 0 3.5 1.57 3.5 3.5zm0-14.2c0 1.93-1.57 3.5-3.5 3.5-1.94 0-3.5-1.57-3.5-3.5 0-1.94 1.56-3.5 3.5-3.5 1.93 0 3.5 1.56 3.5 3.5zm0-14.2c0 1.92-1.57 3.5-3.5 3.5-1.94 0-3.5-1.58-3.5-3.5 0-1.95 1.56-3.5 3.5-3.5 1.93 0 3.5 1.55 3.5 3.5zm0-14.22c0 1.93-1.57 3.5-3.5 3.5-1.94 0-3.5-1.57-3.5-3.5s1.56-3.5 3.5-3.5c1.93 0 3.5 1.57 3.5 3.5zm19-5c0 1.93-1.56 3.5-3.5 3.5-1.92 0-3.5-1.57-3.5-3.5s1.58-3.5 3.5-3.5c1.94 0 3.5 1.57 3.5 3.5zm14.02 0c0 1.93-1.56 3.5-3.5 3.5-1.93 0-3.5-1.57-3.5-3.5s1.57-3.5 3.5-3.5c1.94 0 3.5 1.57 3.5 3.5zm14.02 0c0 1.93-1.57 3.5-3.5 3.5-1.94 0-3.5-1.57-3.5-3.5s1.56-3.5 3.5-3.5c1.93 0 3.5 1.57 3.5 3.5zm14 0c0 1.93-1.56 3.5-3.5 3.5-1.92 0-3.5-1.57-3.5-3.5s1.58-3.5 3.5-3.5c1.94 0 3.5 1.57 3.5 3.5zm14.02 0c0 1.93-1.56 3.5-3.5 3.5-1.93 0-3.5-1.57-3.5-3.5s1.57-3.5 3.5-3.5c1.94 0 3.5 1.57 3.5 3.5zm14.02 0c0 1.93-1.57 3.5-3.5 3.5-1.94 0-3.5-1.57-3.5-3.5s1.56-3.5 3.5-3.5c1.93 0 3.5 1.57 3.5 3.5zm14 0c0 1.93-1.56 3.5-3.5 3.5-1.92 0-3.5-1.57-3.5-3.5s1.58-3.5 3.5-3.5c1.94 0 3.5 1.57 3.5 3.5zm14.02 0c0 1.93-1.56 3.5-3.5 3.5-1.93 0-3.5-1.57-3.5-3.5s1.57-3.5 3.5-3.5c1.94 0 3.5 1.57 3.5 3.5zm14.02 0c0 1.93-1.57 3.5-3.5 3.5-1.94 0-3.5-1.57-3.5-3.5s1.56-3.5 3.5-3.5c1.93 0 3.5 1.57 3.5 3.5zm14 0c0 1.93-1.56 3.5-3.5 3.5-1.92 0-3.5-1.57-3.5-3.5s1.58-3.5 3.5-3.5c1.94 0 3.5 1.57 3.5 3.5zm14.02 0c0 1.93-1.56 3.5-3.5 3.5-1.93 0-3.5-1.57-3.5-3.5s1.57-3.5 3.5-3.5c1.94 0 3.5 1.57 3.5 3.5zm14.02 0c0 1.93-1.57 3.5-3.5 3.5-1.94 0-3.5-1.57-3.5-3.5s1.56-3.5 3.5-3.5c1.93 0 3.5 1.57 3.5 3.5zm14 0c0 1.93-1.56 3.5-3.5 3.5-1.92 0-3.5-1.57-3.5-3.5s1.58-3.5 3.5-3.5c1.94 0 3.5 1.57 3.5 3.5zm14.02 0c0 1.93-1.56 3.5-3.5 3.5-1.93 0-3.5-1.57-3.5-3.5s1.57-3.5 3.5-3.5c1.94 0 3.5 1.57 3.5 3.5zm14.02 0c0 1.93-1.57 3.5-3.5 3.5-1.94 0-3.5-1.57-3.5-3.5s1.56-3.5 3.5-3.5c1.93 0 3.5 1.57 3.5 3.5zm14 0c0 1.93-1.56 3.5-3.5 3.5-1.92 0-3.5-1.57-3.5-3.5s1.58-3.5 3.5-3.5c1.94 0 3.5 1.57 3.5 3.5zm14.02 0c0 1.93-1.57 3.5-3.5 3.5s-3.5-1.57-3.5-3.5 1.57-3.5 3.5-3.5 3.5 1.57 3.5 3.5zm14 0c0 1.93-1.55 3.5-3.5 3.5-1.92 0-3.5-1.57-3.5-3.5s1.58-3.5 3.5-3.5c1.95 0 3.5 1.57 3.5 3.5zm14.03 0c0 1.93-1.57 3.5-3.5 3.5s-3.5-1.57-3.5-3.5 1.57-3.5 3.5-3.5 3.5 1.57 3.5 3.5zm14 0c0 1.93-1.55 3.5-3.5 3.5-1.92 0-3.5-1.57-3.5-3.5s1.58-3.5 3.5-3.5c1.95 0 3.5 1.57 3.5 3.5zm14.02 0c0 1.93-1.56 3.5-3.5 3.5-1.93 0-3.5-1.57-3.5-3.5s1.57-3.5 3.5-3.5c1.94 0 3.5 1.57 3.5 3.5zm14.02 0c0 1.93-1.58 3.5-3.5 3.5-1.94 0-3.5-1.57-3.5-3.5s1.56-3.5 3.5-3.5c1.92 0 3.5 1.57 3.5 3.5zm14 0c0 1.93-1.56 3.5-3.5 3.5-1.93 0-3.5-1.57-3.5-3.5s1.57-3.5 3.5-3.5c1.94 0 3.5 1.57 3.5 3.5zm14.02 0c0 1.93-1.57 3.5-3.5 3.5-1.94 0-3.5-1.57-3.5-3.5s1.56-3.5 3.5-3.5c1.93 0 3.5 1.57 3.5 3.5zm14 0c0 1.93-1.56 3.5-3.5 3.5-1.93 0-3.5-1.57-3.5-3.5s1.57-3.5 3.5-3.5c1.94 0 3.5 1.57 3.5 3.5zm14.02 0c0 1.93-1.57 3.5-3.5 3.5s-3.5-1.57-3.5-3.5 1.57-3.5 3.5-3.5 3.5 1.57 3.5 3.5zm14 0c0 1.93-1.55 3.5-3.5 3.5-1.92 0-3.5-1.57-3.5-3.5s1.58-3.5 3.5-3.5c1.95 0 3.5 1.57 3.5 3.5zm14.03 0c0 1.93-1.57 3.5-3.5 3.5-1.94 0-3.5-1.57-3.5-3.5s1.56-3.5 3.5-3.5c1.93 0 3.5 1.57 3.5 3.5zm14 0c0 1.93-1.56 3.5-3.5 3.5-1.92 0-3.5-1.57-3.5-3.5s1.58-3.5 3.5-3.5c1.94 0 3.5 1.57 3.5 3.5zm14.02 0c0 1.93-1.57 3.5-3.5 3.5-1.94 0-3.5-1.57-3.5-3.5s1.56-3.5 3.5-3.5c1.93 0 3.5 1.57 3.5 3.5zm14 0c0 1.93-1.56 3.5-3.5 3.5-1.93 0-3.5-1.57-3.5-3.5s1.57-3.5 3.5-3.5c1.94 0 3.5 1.57 3.5 3.5zm14.02 0c0 1.93-1.57 3.5-3.5 3.5s-3.5-1.57-3.5-3.5 1.57-3.5 3.5-3.5 3.5 1.57 3.5 3.5zm14 0c0 1.93-1.55 3.5-3.5 3.5-1.92 0-3.5-1.57-3.5-3.5s1.58-3.5 3.5-3.5c1.95 0 3.5 1.57 3.5 3.5zm14.03 0c0 1.93-1.57 3.5-3.5 3.5-1.94 0-3.5-1.57-3.5-3.5s1.56-3.5 3.5-3.5c1.93 0 3.5 1.57 3.5 3.5zm14 0c0 1.93-1.56 3.5-3.5 3.5-1.92 0-3.5-1.57-3.5-3.5s1.58-3.5 3.5-3.5c1.94 0 3.5 1.57 3.5 3.5zm14.02 0c0 1.93-1.56 3.5-3.5 3.5-1.93 0-3.5-1.57-3.5-3.5s1.57-3.5 3.5-3.5c1.94 0 3.5 1.57 3.5 3.5zm14.02 0c0 1.93-1.58 3.5-3.5 3.5-1.95 0-3.5-1.57-3.5-3.5s1.55-3.5 3.5-3.5c1.92 0 3.5 1.57 3.5 3.5zm14 0c0 1.93-1.57 3.5-3.5 3.5s-3.5-1.57-3.5-3.5 1.57-3.5 3.5-3.5 3.5 1.57 3.5 3.5zm5 16.5c0 1.93-1.57 3.5-3.5 3.5s-3.5-1.57-3.5-3.5 1.57-3.5 3.5-3.5 3.5 1.57 3.5 3.5z" fill="#333"/><path d="M393 541.75l-3.5-1.75v.02-.02l-3.5 1.75v-5.33h7zM935.5 310.15L932 310h-.53l-2.97.16v-3.75h7z" stroke="#333" stroke-width=".05" fill="#333"/><defs><path fill="#333" d="M24-248c93 1 206-16 204 79-1 75-69 88-152 82V0H24v-248zm52 121c47 0 100 7 100-41 0-47-54-39-100-39v80" id="t"/><path fill="#333" d="M135-150c-39-12-60 13-60 57V0H25l-1-190h47c2 13-1 29 3 40 6-28 27-53 61-41v41" id="u"/><path fill="#333" d="M25-224v-37h50v37H25zM25 0v-190h50V0H25" id="v"/><path fill="#333" d="M128 0H69L1-190h53L99-40l48-150h52" id="w"/><path fill="#333" d="M133-34C117-15 103 5 69 4 32 3 11-16 11-54c-1-60 55-63 116-61 1-26-3-47-28-47-18 1-26 9-28 27l-52-2c7-38 36-58 82-57s74 22 75 68l1 82c-1 14 12 18 25 15v27c-30 8-71 5-69-32zm-48 3c29 0 43-24 42-57-32 0-66-3-65 30 0 17 8 27 23 27" id="x"/><path fill="#333" d="M115-3C79 11 28 4 28-45v-112H4v-33h27l15-45h31v45h36v33H77v99c-1 23 16 31 38 25v30" id="y"/><path fill="#333" d="M185-48c-13 30-37 53-82 52C43 2 14-33 14-96s30-98 90-98c62 0 83 45 84 108H66c0 31 8 55 39 56 18 0 30-7 34-22zm-45-69c5-46-57-63-70-21-2 6-4 13-4 21h74" id="z"/><g id="a"><use transform="matrix(0.08641975308641976,0,0,0.08641975308641976,0,0)" xlink:href="#t"/><use transform="matrix(0.08641975308641976,0,0,0.08641975308641976,20.740740740740744,0)" xlink:href="#u"/><use transform="matrix(0.08641975308641976,0,0,0.08641975308641976,32.839506172839506,0)" xlink:href="#v"/><use transform="matrix(0.08641975308641976,0,0,0.08641975308641976,41.48148148148148,0)" xlink:href="#w"/><use transform="matrix(0.08641975308641976,0,0,0.08641975308641976,58.76543209876543,0)" xlink:href="#x"/><use transform="matrix(0.08641975308641976,0,0,0.08641975308641976,76.04938271604938,0)" xlink:href="#y"/><use transform="matrix(0.08641975308641976,0,0,0.08641975308641976,86.33333333333333,0)" xlink:href="#z"/></g><path fill="#333" d="M169-182c-1-43-94-46-97-3 18 66 151 10 154 114 3 95-165 93-204 36-6-8-10-19-12-30l50-8c3 46 112 56 116 5-17-69-150-10-154-114-4-87 153-88 188-35 5 8 8 18 10 28" id="A"/><path fill="#333" d="M85 4C-2 5 27-109 22-190h50c7 57-23 150 33 157 60-5 35-97 40-157h50l1 190h-47c-2-12 1-28-3-38-12 25-28 42-61 42" id="B"/><path fill="#333" d="M135-194c52 0 70 43 70 98 0 56-19 99-73 100-30 1-46-15-58-35L72 0H24l1-261h50v104c11-23 29-37 60-37zM114-30c31 0 40-27 40-66 0-37-7-63-39-63s-41 28-41 65c0 36 8 64 40 64" id="C"/><path fill="#333" d="M135-194c87-1 58 113 63 194h-50c-7-57 23-157-34-157-59 0-34 97-39 157H25l-1-190h47c2 12-1 28 3 38 12-26 28-41 61-42" id="D"/><g id="b"><use transform="matrix(0.08641975308641976,0,0,0.08641975308641976,0,0)" xlink:href="#A"/><use transform="matrix(0.08641975308641976,0,0,0.08641975308641976,20.740740740740744,0)" xlink:href="#B"/><use transform="matrix(0.08641975308641976,0,0,0.08641975308641976,39.66666666666667,0)" xlink:href="#C"/><use transform="matrix(0.08641975308641976,0,0,0.08641975308641976,58.592592592592595,0)" xlink:href="#D"/><use transform="matrix(0.08641975308641976,0,0,0.08641975308641976,77.51851851851852,0)" xlink:href="#z"/><use transform="matrix(0.08641975308641976,0,0,0.08641975308641976,94.80246913580245,0)" xlink:href="#y"/></g><path fill="#333" d="M25 0v-261h50V0H25" id="E"/><path fill="#333" d="M190-63c-7 42-38 67-86 67-59 0-84-38-90-98-12-110 154-137 174-36l-49 2c-2-19-15-32-35-32-30 0-35 28-38 64-6 74 65 87 74 30" id="F"/><g id="c"><use transform="matrix(0.08641975308641976,0,0,0.08641975308641976,0,0)" xlink:href="#t"/><use transform="matrix(0.08641975308641976,0,0,0.08641975308641976,20.740740740740744,0)" xlink:href="#B"/><use transform="matrix(0.08641975308641976,0,0,0.08641975308641976,39.66666666666667,0)" xlink:href="#C"/><use transform="matrix(0.08641975308641976,0,0,0.08641975308641976,58.592592592592595,0)" xlink:href="#E"/><use transform="matrix(0.08641975308641976,0,0,0.08641975308641976,67.23456790123457,0)" xlink:href="#v"/><use transform="matrix(0.08641975308641976,0,0,0.08641975308641976,75.87654320987654,0)" xlink:href="#F"/></g><path fill="#333" d="M33 0v-248h34V0H33" id="G"/><path fill="#333" d="M117-194c89-4 53 116 60 194h-32v-121c0-31-8-49-39-48C34-167 62-67 57 0H25l-1-190h30c1 10-1 24 2 32 11-22 29-35 61-36" id="H"/><path fill="#333" d="M59-47c-2 24 18 29 38 22v24C64 9 27 4 27-40v-127H5v-23h24l9-43h21v43h35v23H59v120" id="I"/><path fill="#333" d="M100-194c63 0 86 42 84 106H49c0 40 14 67 53 68 26 1 43-12 49-29l28 8c-11 28-37 45-77 45C44 4 14-33 15-96c1-61 26-98 85-98zm52 81c6-60-76-77-97-28-3 7-6 17-6 28h103" id="J"/><path fill="#333" d="M114-163C36-179 61-72 57 0H25l-1-190h30c1 12-1 29 2 39 6-27 23-49 58-41v29" id="K"/><g id="d"><use transform="matrix(0.08641975308641976,0,0,0.08641975308641976,0,0)" xlink:href="#G"/><use transform="matrix(0.08641975308641976,0,0,0.08641975308641976,8.641975308641976,0)" xlink:href="#H"/><use transform="matrix(0.08641975308641976,0,0,0.08641975308641976,25.925925925925927,0)" xlink:href="#I"/><use transform="matrix(0.08641975308641976,0,0,0.08641975308641976,34.567901234567906,0)" xlink:href="#J"/><use transform="matrix(0.08641975308641976,0,0,0.08641975308641976,51.851851851851855,0)" xlink:href="#K"/><use transform="matrix(0.08641975308641976,0,0,0.08641975308641976,62.13580246913581,0)" xlink:href="#H"/><use transform="matrix(0.08641975308641976,0,0,0.08641975308641976,79.41975308641976,0)" xlink:href="#J"/><use transform="matrix(0.08641975308641976,0,0,0.08641975308641976,96.70370370370371,0)" xlink:href="#I"/></g><path fill="#333" d="M177-190C167-65 218 103 67 71c-23-6-38-20-44-43l32-5c15 47 100 32 89-28v-30C133-14 115 1 83 1 29 1 15-40 15-95c0-56 16-97 71-98 29-1 48 16 59 35 1-10 0-23 2-32h30zM94-22c36 0 50-32 50-73 0-42-14-75-50-75-39 0-46 34-46 75s6 73 46 73" id="L"/><path fill="#333" d="M141-36C126-15 110 5 73 4 37 3 15-17 15-53c-1-64 63-63 125-63 3-35-9-54-41-54-24 1-41 7-42 31l-33-3c5-37 33-52 76-52 45 0 72 20 72 64v82c-1 20 7 32 28 27v20c-31 9-61-2-59-35zM48-53c0 20 12 33 32 33 41-3 63-29 60-74-43 2-92-5-92 41" id="M"/><path fill="#333" d="M206 0h-36l-40-164L89 0H53L-1-190h32L70-26l43-164h34l41 164 42-164h31" id="N"/><path fill="#333" d="M179-190L93 31C79 59 56 82 12 73V49c39 6 53-20 64-50L1-190h34L92-34l54-156h33" id="O"/><g id="e"><use transform="matrix(0.08641975308641976,0,0,0.08641975308641976,0,0)" xlink:href="#L"/><use transform="matrix(0.08641975308641976,0,0,0.08641975308641976,17.283950617283953,0)" xlink:href="#M"/><use transform="matrix(0.08641975308641976,0,0,0.08641975308641976,34.567901234567906,0)" xlink:href="#I"/><use transform="matrix(0.08641975308641976,0,0,0.08641975308641976,43.20987654320988,0)" xlink:href="#J"/><use transform="matrix(0.08641975308641976,0,0,0.08641975308641976,60.49382716049384,0)" xlink:href="#N"/><use transform="matrix(0.08641975308641976,0,0,0.08641975308641976,82.87654320987656,0)" xlink:href="#M"/><use transform="matrix(0.08641975308641976,0,0,0.08641975308641976,100.16049382716051,0)" xlink:href="#O"/></g><path d="M190 0L58-211 59 0H30v-248h39L202-35l-2-213h31V0h-41" id="P"/><path d="M205 0l-28-72H64L36 0H1l101-248h38L239 0h-34zm-38-99l-47-123c-12 45-31 82-46 123h93" id="Q"/><path d="M127-220V0H93v-220H8v-28h204v28h-85" id="R"/><g id="f"><use transform="matrix(0.08641975308641976,0,0,0.08641975308641976,0,0)" xlink:href="#P"/><use transform="matrix(0.08641975308641976,0,0,0.08641975308641976,22.38271604938272,0)" xlink:href="#Q"/><use transform="matrix(0.08641975308641976,0,0,0.08641975308641976,40.79012345679013,0)" xlink:href="#R"/></g><path d="M30 0v-248h187v28H63v79h144v27H63v87h162V0H30" id="S"/><path d="M212-179c-10-28-35-45-73-45-59 0-87 40-87 99 0 60 29 101 89 101 43 0 62-24 78-52l27 14C228-24 195 4 139 4 59 4 22-46 18-125c-6-104 99-153 187-111 19 9 31 26 39 46" id="T"/><path d="M101-251c82-7 93 87 43 132L82-64C71-53 59-42 53-27h129V0H18c2-99 128-94 128-182 0-28-16-43-45-43s-46 15-49 41l-32-3c6-41 34-60 81-64" id="U"/><g id="g"><use transform="matrix(0.08641975308641976,0,0,0.08641975308641976,0,0)" xlink:href="#S"/><use transform="matrix(0.08641975308641976,0,0,0.08641975308641976,20.740740740740744,0)" xlink:href="#T"/><use transform="matrix(0.08641975308641976,0,0,0.08641975308641976,43.12345679012346,0)" xlink:href="#U"/></g><path d="M33 0v-248h34V0H33" id="V"/><path d="M117-194c89-4 53 116 60 194h-32v-121c0-31-8-49-39-48C34-167 62-67 57 0H25l-1-190h30c1 10-1 24 2 32 11-22 29-35 61-36" id="W"/><path d="M135-143c-3-34-86-38-87 0 15 53 115 12 119 90S17 21 10-45l28-5c4 36 97 45 98 0-10-56-113-15-118-90-4-57 82-63 122-42 12 7 21 19 24 35" id="X"/><path d="M59-47c-2 24 18 29 38 22v24C64 9 27 4 27-40v-127H5v-23h24l9-43h21v43h35v23H59v120" id="Y"/><path d="M141-36C126-15 110 5 73 4 37 3 15-17 15-53c-1-64 63-63 125-63 3-35-9-54-41-54-24 1-41 7-42 31l-33-3c5-37 33-52 76-52 45 0 72 20 72 64v82c-1 20 7 32 28 27v20c-31 9-61-2-59-35zM48-53c0 20 12 33 32 33 41-3 63-29 60-74-43 2-92-5-92 41" id="Z"/><path d="M96-169c-40 0-48 33-48 73s9 75 48 75c24 0 41-14 43-38l32 2c-6 37-31 61-74 61-59 0-76-41-82-99-10-93 101-131 147-64 4 7 5 14 7 22l-32 3c-4-21-16-35-41-35" id="aa"/><path d="M100-194c63 0 86 42 84 106H49c0 40 14 67 53 68 26 1 43-12 49-29l28 8c-11 28-37 45-77 45C44 4 14-33 15-96c1-61 26-98 85-98zm52 81c6-60-76-77-97-28-3 7-6 17-6 28h103" id="ab"/><g id="h"><use transform="matrix(0.08641975308641976,0,0,0.08641975308641976,0,0)" xlink:href="#V"/><use transform="matrix(0.08641975308641976,0,0,0.08641975308641976,8.641975308641976,0)" xlink:href="#W"/><use transform="matrix(0.08641975308641976,0,0,0.08641975308641976,25.925925925925927,0)" xlink:href="#X"/><use transform="matrix(0.08641975308641976,0,0,0.08641975308641976,41.48148148148149,0)" xlink:href="#Y"/><use transform="matrix(0.08641975308641976,0,0,0.08641975308641976,50.12345679012346,0)" xlink:href="#Z"/><use transform="matrix(0.08641975308641976,0,0,0.08641975308641976,67.40740740740742,0)" xlink:href="#W"/><use transform="matrix(0.08641975308641976,0,0,0.08641975308641976,84.69135802469137,0)" xlink:href="#aa"/><use transform="matrix(0.08641975308641976,0,0,0.08641975308641976,100.24691358024693,0)" xlink:href="#ab"/></g><path d="M30 0v-248h33v221h125V0H30" id="ac"/><path d="M210-169c-67 3-38 105-44 169h-31v-121c0-29-5-50-35-48C34-165 62-65 56 0H25l-1-190h30c1 10-1 24 2 32 10-44 99-50 107 0 11-21 27-35 58-36 85-2 47 119 55 194h-31v-121c0-29-5-49-35-48" id="ad"/><path d="M115-194c53 0 69 39 70 98 0 66-23 100-70 100C84 3 66-7 56-30L54 0H23l1-261h32v101c10-23 28-34 59-34zm-8 174c40 0 45-34 45-75 0-40-5-75-45-74-42 0-51 32-51 76 0 43 10 73 51 73" id="ae"/><path d="M85-194c31 0 48 13 60 33l-1-100h32l1 261h-30c-2-10 0-23-3-31C134-8 116 4 85 4 32 4 16-35 15-94c0-66 23-100 70-100zm9 24c-40 0-46 34-46 75 0 40 6 74 45 74 42 0 51-32 51-76 0-42-9-74-50-73" id="af"/><g id="i"><use transform="matrix(0.08641975308641976,0,0,0.08641975308641976,0,0)" xlink:href="#ac"/><use transform="matrix(0.08641975308641976,0,0,0.08641975308641976,17.283950617283953,0)" xlink:href="#Z"/><use transform="matrix(0.08641975308641976,0,0,0.08641975308641976,34.567901234567906,0)" xlink:href="#ad"/><use transform="matrix(0.08641975308641976,0,0,0.08641975308641976,60.407407407407426,0)" xlink:href="#ae"/><use transform="matrix(0.08641975308641976,0,0,0.08641975308641976,77.69135802469137,0)" xlink:href="#af"/><use transform="matrix(0.08641975308641976,0,0,0.08641975308641976,94.97530864197532,0)" xlink:href="#Z"/></g><path d="M30-248c87 1 191-15 191 75 0 78-77 80-158 76V0H30v-248zm33 125c57 0 124 11 124-50 0-59-68-47-124-48v98" id="ag"/><g id="j"><use transform="matrix(0.08641975308641976,0,0,0.08641975308641976,0,0)" xlink:href="#Q"/><use transform="matrix(0.08641975308641976,0,0,0.08641975308641976,20.740740740740744,0)" xlink:href="#ag"/><use transform="matrix(0.08641975308641976,0,0,0.08641975308641976,41.48148148148149,0)" xlink:href="#V"/><use transform="matrix(0.08641975308641976,0,0,0.08641975308641976,50.12345679012346,0)" xlink:href="#X"/></g><path d="M9 0v-24l116-142H16v-24h144v24L44-24h123V0H9" id="ah"/><path d="M100-194c62-1 85 37 85 99 1 63-27 99-86 99S16-35 15-95c0-66 28-99 85-99zM99-20c44 1 53-31 53-75 0-43-8-75-51-75s-53 32-53 75 10 74 51 75" id="ai"/><g id="k"><use transform="matrix(0.08641975308641976,0,0,0.08641975308641976,0,0)" xlink:href="#Q"/><use transform="matrix(0.08641975308641976,0,0,0.08641975308641976,20.740740740740744,0)" xlink:href="#ad"/><use transform="matrix(0.08641975308641976,0,0,0.08641975308641976,46.580246913580254,0)" xlink:href="#Z"/><use transform="matrix(0.08641975308641976,0,0,0.08641975308641976,63.8641975308642,0)" xlink:href="#ah"/><use transform="matrix(0.08641975308641976,0,0,0.08641975308641976,79.41975308641976,0)" xlink:href="#ai"/><use transform="matrix(0.08641975308641976,0,0,0.08641975308641976,96.70370370370371,0)" xlink:href="#W"/></g><path d="M185-189c-5-48-123-54-124 2 14 75 158 14 163 119 3 78-121 87-175 55-17-10-28-26-33-46l33-7c5 56 141 63 141-1 0-78-155-14-162-118-5-82 145-84 179-34 5 7 8 16 11 25" id="aj"/><path d="M126-127c33 6 58 20 58 59 0 88-139 92-164 29-3-8-5-16-6-25l32-3c6 27 21 44 54 44 32 0 52-15 52-46 0-38-36-46-79-43v-28c39 1 72-4 72-42 0-27-17-43-46-43-28 0-47 15-49 41l-32-3c6-42 35-63 81-64 48-1 79 21 79 65 0 36-21 52-52 59" id="ak"/><g id="l"><use transform="matrix(0.08641975308641976,0,0,0.08641975308641976,0,0)" xlink:href="#aj"/><use transform="matrix(0.08641975308641976,0,0,0.08641975308641976,20.740740740740744,0)" xlink:href="#ak"/></g><path d="M233-177c-1 41-23 64-60 70L243 0h-38l-65-103H63V0H30v-248c88 3 205-21 203 71zM63-129c60-2 137 13 137-47 0-61-80-42-137-45v92" id="al"/><path d="M30-248c118-7 216 8 213 122C240-48 200 0 122 0H30v-248zM63-27c89 8 146-16 146-99s-60-101-146-95v194" id="am"/><g id="m"><use transform="matrix(0.08641975308641976,0,0,0.08641975308641976,0,0)" xlink:href="#al"/><use transform="matrix(0.08641975308641976,0,0,0.08641975308641976,22.38271604938272,0)" xlink:href="#am"/><use transform="matrix(0.08641975308641976,0,0,0.08641975308641976,44.76543209876544,0)" xlink:href="#aj"/></g><path d="M24 0v-261h32V0H24" id="an"/><path d="M84 4C-5 8 30-112 23-190h32v120c0 31 7 50 39 49 72-2 45-101 50-169h31l1 190h-30c-1-10 1-25-2-33-11 22-28 36-60 37" id="ao"/><path d="M63-220v92h138v28H63V0H30v-248h175v28H63" id="ap"/><path d="M114-163C36-179 61-72 57 0H25l-1-190h30c1 12-1 29 2 39 6-27 23-49 58-41v29" id="aq"/><g id="n"><use transform="matrix(0.08641975308641976,0,0,0.08641975308641976,0,0)" xlink:href="#T"/><use transform="matrix(0.08641975308641976,0,0,0.08641975308641976,22.38271604938272,0)" xlink:href="#an"/><use transform="matrix(0.08641975308641976,0,0,0.08641975308641976,29.20987654320988,0)" xlink:href="#ai"/><use transform="matrix(0.08641975308641976,0,0,0.08641975308641976,46.49382716049383,0)" xlink:href="#ao"/><use transform="matrix(0.08641975308641976,0,0,0.08641975308641976,63.777777777777786,0)" xlink:href="#af"/><use transform="matrix(0.08641975308641976,0,0,0.08641975308641976,81.06172839506173,0)" xlink:href="#ap"/><use transform="matrix(0.08641975308641976,0,0,0.08641975308641976,99.98765432098766,0)" xlink:href="#aq"/><use transform="matrix(0.08641975308641976,0,0,0.08641975308641976,110.27160493827162,0)" xlink:href="#ai"/><use transform="matrix(0.08641975308641976,0,0,0.08641975308641976,127.55555555555554,0)" xlink:href="#W"/><use transform="matrix(0.08641975308641976,0,0,0.08641975308641976,144.83950617283952,0)" xlink:href="#Y"/></g><path d="M108 0H70L1-190h34L89-25l56-165h34" id="ar"/><path d="M115-194c55 1 70 41 70 98S169 2 115 4C84 4 66-9 55-30l1 105H24l-1-265h31l2 30c10-21 28-34 59-34zm-8 174c40 0 45-34 45-75s-6-73-45-74c-42 0-51 32-51 76 0 43 10 73 51 73" id="as"/><g id="o"><use transform="matrix(0.08641975308641976,0,0,0.08641975308641976,0,0)" xlink:href="#am"/><use transform="matrix(0.08641975308641976,0,0,0.08641975308641976,22.38271604938272,0)" xlink:href="#ab"/><use transform="matrix(0.08641975308641976,0,0,0.08641975308641976,39.66666666666667,0)" xlink:href="#ar"/><use transform="matrix(0.08641975308641976,0,0,0.08641975308641976,55.22222222222223,0)" xlink:href="#ab"/><use transform="matrix(0.08641975308641976,0,0,0.08641975308641976,72.50617283950618,0)" xlink:href="#an"/><use transform="matrix(0.08641975308641976,0,0,0.08641975308641976,79.33333333333334,0)" xlink:href="#ai"/><use transform="matrix(0.08641975308641976,0,0,0.08641975308641976,96.61728395061729,0)" xlink:href="#as"/><use transform="matrix(0.08641975308641976,0,0,0.08641975308641976,113.90123456790124,0)" xlink:href="#ab"/><use transform="matrix(0.08641975308641976,0,0,0.08641975308641976,131.1851851851852,0)" xlink:href="#aq"/></g><path d="M232-93c-1 65-40 97-104 97C67 4 28-28 28-90v-158h33c8 89-33 224 67 224 102 0 64-133 71-224h33v155" id="at"/><g id="p"><use transform="matrix(0.08641975308641976,0,0,0.08641975308641976,0,0)" xlink:href="#at"/><use transform="matrix(0.08641975308641976,0,0,0.08641975308641976,22.38271604938272,0)" xlink:href="#X"/><use transform="matrix(0.08641975308641976,0,0,0.08641975308641976,37.93827160493828,0)" xlink:href="#ab"/><use transform="matrix(0.08641975308641976,0,0,0.08641975308641976,55.22222222222223,0)" xlink:href="#aq"/><use transform="matrix(0.08641975308641976,0,0,0.08641975308641976,65.50617283950618,0)" xlink:href="#X"/></g><path d="M143 4C61 4 22-44 18-125c-5-107 100-154 193-111 17 8 29 25 37 43l-32 9c-13-25-37-40-76-40-61 0-88 39-88 99 0 61 29 100 91 101 35 0 62-11 79-27v-45h-74v-28h105v86C228-13 192 4 143 4" id="au"/><path d="M24-231v-30h32v30H24zM24 0v-190h32V0H24" id="av"/><path d="M197 0v-115H63V0H30v-248h33v105h134v-105h34V0h-34" id="aw"/><g id="q"><use transform="matrix(0.08641975308641976,0,0,0.08641975308641976,0,0)" xlink:href="#au"/><use transform="matrix(0.08641975308641976,0,0,0.08641975308641976,24.19753086419753,0)" xlink:href="#av"/><use transform="matrix(0.08641975308641976,0,0,0.08641975308641976,31.024691358024693,0)" xlink:href="#Y"/><use transform="matrix(0.08641975308641976,0,0,0.08641975308641976,39.66666666666667,0)" xlink:href="#aw"/><use transform="matrix(0.08641975308641976,0,0,0.08641975308641976,62.04938271604939,0)" xlink:href="#ao"/><use transform="matrix(0.08641975308641976,0,0,0.08641975308641976,79.33333333333334,0)" xlink:href="#ae"/></g><path d="M240 0l2-218c-23 76-54 145-80 218h-23L58-218 59 0H30v-248h44l77 211c21-75 51-140 76-211h43V0h-30" id="ax"/><g id="r"><use transform="matrix(0.08641975308641976,0,0,0.08641975308641976,0,0)" xlink:href="#S"/><use transform="matrix(0.08641975308641976,0,0,0.08641975308641976,20.740740740740744,0)" xlink:href="#ax"/><use transform="matrix(0.08641975308641976,0,0,0.08641975308641976,46.580246913580254,0)" xlink:href="#al"/></g><g id="s"><use transform="matrix(0.08641975308641976,0,0,0.08641975308641976,0,0)" xlink:href="#T"/><use transform="matrix(0.08641975308641976,0,0,0.08641975308641976,22.38271604938272,0)" xlink:href="#an"/><use transform="matrix(0.08641975308641976,0,0,0.08641975308641976,29.20987654320988,0)" xlink:href="#ao"/><use transform="matrix(0.08641975308641976,0,0,0.08641975308641976,46.49382716049383,0)" xlink:href="#X"/><use transform="matrix(0.08641975308641976,0,0,0.08641975308641976,62.04938271604939,0)" xlink:href="#Y"/><use transform="matrix(0.08641975308641976,0,0,0.08641975308641976,70.69135802469137,0)" xlink:href="#ab"/><use transform="matrix(0.08641975308641976,0,0,0.08641975308641976,87.97530864197532,0)" xlink:href="#aq"/></g></defs></g></svg>